ISO-10303-21;
HEADER;
FILE_DESCRIPTION (( 'STEP AP203' ),
    '1' );
FILE_NAME ('MN.STEP',
    '2026-09-11T22:26:53',
    ( '' ),
    ( '' ),
    'SwSTEP 2.0',
    'SolidWorks 2024',
    '' );
FILE_SCHEMA (( 'CONFIG_CONTROL_DESIGN' ));
ENDSEC;

DATA;
#1 = COORDINATED_UNIVERSAL_TIME_OFFSET ( 8, 0, .BEHIND. ) ;
#2 = APPROVAL_DATE_TIME ( #103, #1262 ) ;
#3 = COORDINATED_UNIVERSAL_TIME_OFFSET ( 8, 0, .BEHIND. ) ;
#4 =( REPRESENTATION_RELATIONSHIP ('NONE','NONE', #416, #344 ) REPRESENTATION_RELATIONSHIP_WITH_TRANSFORMATION ( #1054 )SHAPE_REPRESENTATION_RELATIONSHIP( ) );
#5 = CALENDAR_DATE ( 2026, 11, 9 ) ;
#6 = CC_DESIGN_PERSON_AND_ORGANIZATION_ASSIGNMENT ( #977, #314, ( #1231 ) ) ;
#7 = LOCAL_TIME ( 15, 26, 53.00000000000000000, #635 ) ;
#8 = CALENDAR_DATE ( 2026, 11, 9 ) ;
#9 = CALENDAR_DATE ( 2026, 11, 9 ) ;
#10 = PRODUCT ( 'MNsharp', 'MNsharp', '', ( #1337 ) ) ;
#11 = DATE_AND_TIME ( #1067, #1102 ) ;
#12 = COORDINATED_UNIVERSAL_TIME_OFFSET ( 8, 0, .BEHIND. ) ;
#13 = SECURITY_CLASSIFICATION ( '', '', #856 ) ;
#14 = APPROVAL ( #1287, 'UNKNOWN' ) ;
#15 = CC_DESIGN_DATE_AND_TIME_ASSIGNMENT ( #225, #536, ( #1055 ) ) ;
#16 = LOCAL_TIME ( 15, 26, 53.00000000000000000, #51 ) ;
#17 = CONTEXT_DEPENDENT_SHAPE_REPRESENTATION ( #497, #1148 ) ;
#18 = APPROVAL_ROLE ( '' ) ;
#19 = COORDINATED_UNIVERSAL_TIME_OFFSET ( 8, 0, .BEHIND. ) ;
#20 = LINE ( 'NONE', #407, #724 ) ;
#21 = CC_DESIGN_SECURITY_CLASSIFICATION ( #1231, ( #1368 ) ) ;
#22 = APPROVAL_DATE_TIME ( #136, #890 ) ;
#23 = CALENDAR_DATE ( 2026, 11, 9 ) ;
#24 = DIRECTION ( 'NONE',  ( 0.000000000000000000, 0.000000000000000000, -1.000000000000000000 ) ) ;
#25 = LOCAL_TIME ( 15, 26, 53.00000000000000000, #1181 ) ;
#26 = PERSON_AND_ORGANIZATION ( #1177, #39 ) ;
#27 = SECURITY_CLASSIFICATION_LEVEL ( 'unclassified' ) ;
#28 = LOCAL_TIME ( 15, 26, 53.00000000000000000, #706 ) ;
#29 = APPROVAL ( #68, 'UNKNOWN' ) ;
#30 = PERSON ( 'NAUO-PER3', 'UNSPECIFIED', 'UNSPECIFIED', ('UNSPECIFIED'), ('UNSPECIFIED'), ('UNSPECIFIED') ) ;
#31 = PRODUCT_DEFINITION_SHAPE ( 'NONE', 'NONE',  #1360 ) ;
#32 = DATE_TIME_ROLE ( 'classification_date' ) ;
#33 = CARTESIAN_POINT ( 'NONE',  ( 0.1109564667602157551, 0.000000000000000000, 0.002309798981860196072 ) ) ;
#34 = DIRECTION ( 'NONE',  ( -1.224646799147356412E-16, 1.000000000000000000, 1.789277107948263341E-32 ) ) ;
#35 = APPROVAL ( #696, 'UNKNOWN' ) ;
#36 = ORIENTED_EDGE ( 'NONE', *, *, #692, .T. ) ;
#37 = PERSON_AND_ORGANIZATION ( #703, #408 ) ;
#38 = PLANE ( 'NONE',  #163 ) ;
#39 = ORGANIZATION ( 'UNSPECIFIED', 'UNSPECIFIED', '' ) ;
#40 = DIRECTION ( 'NONE',  ( 0.000000000000000000, 0.000000000000000000, 1.000000000000000000 ) ) ;
#41 = PRODUCT_DEFINITION_SHAPE ( 'NONE', 'NONE',  #1370 ) ;
#42 = CC_DESIGN_DATE_AND_TIME_ASSIGNMENT ( #343, #992, ( #954 ) ) ;
#43 =( REPRESENTATION_RELATIONSHIP ('NONE','NONE', #416, #344 ) REPRESENTATION_RELATIONSHIP_WITH_TRANSFORMATION ( #987 )SHAPE_REPRESENTATION_RELATIONSHIP( ) );
#44 = ADVANCED_FACE ( 'NONE', ( #150 ), #583, .F. ) ;
#45 = APPROVAL_STATUS ( 'not_yet_approved' ) ;
#46 = DIRECTION ( 'NONE',  ( -0.9239195927440781997, 4.685335825556203156E-17, -0.3825867040862979684 ) ) ;
#47 =( GEOMETRIC_REPRESENTATION_CONTEXT ( 3 ) GLOBAL_UNCERTAINTY_ASSIGNED_CONTEXT ( ( #578 ) ) GLOBAL_UNIT_ASSIGNED_CONTEXT ( ( #1123, #1309, #1100 ) ) REPRESENTATION_CONTEXT ( 'NONE', 'WORKASPACE' ) );
#48 = CARTESIAN_POINT ( 'NONE',  ( 0.3210120916089923004, 0.6409062464593344721, 0.6581218473503243072 ) ) ;
#49 = ORIENTED_EDGE ( 'NONE', *, *, #998, .T. ) ;
#50 = AXIS2_PLACEMENT_3D ( 'NONE', #267, #614, #933 ) ;
#51 = COORDINATED_UNIVERSAL_TIME_OFFSET ( 8, 0, .BEHIND. ) ;
#52 = CC_DESIGN_PERSON_AND_ORGANIZATION_ASSIGNMENT ( #404, #732, ( #842 ) ) ;
#53 = DATE_AND_TIME ( #502, #674 ) ;
#54 = ADVANCED_FACE ( 'NONE', ( #166 ), #592, .F. ) ;
#55 = DATE_TIME_ROLE ( 'creation_date' ) ;
#56 = ORIENTED_EDGE ( 'NONE', *, *, #305, .T. ) ;
#57 = CALENDAR_DATE ( 2026, 11, 9 ) ;
#58 = CALENDAR_DATE ( 2026, 11, 9 ) ;
#59 = LOCAL_TIME ( 15, 26, 53.00000000000000000, #1307 ) ;
#60 = UNCERTAINTY_MEASURE_WITH_UNIT (LENGTH_MEASURE( 1.000000000000000082E-05 ), #146, 'distance_accuracy_value', 'NONE');
#61 = CALENDAR_DATE ( 2026, 11, 9 ) ;
#62 = LOCAL_TIME ( 15, 26, 53.00000000000000000, #1308 ) ;
#63 = DIRECTION ( 'NONE',  ( 0.2803638829204862515, 3.433467318150973489E-17, 0.9598937926425757938 ) ) ;
#64 = PERSON ( 'NAUO-PER21', 'UNSPECIFIED', 'UNSPECIFIED', ('UNSPECIFIED'), ('UNSPECIFIED'), ('UNSPECIFIED') ) ;
#65 = CC_DESIGN_SECURITY_CLASSIFICATION ( #1055, ( #1383 ) ) ;
#66 = CALENDAR_DATE ( 2026, 11, 9 ) ;
#67 = EDGE_LOOP ( 'NONE', ( #1339, #36, #684 ) ) ;
#68 = APPROVAL_STATUS ( 'not_yet_approved' ) ;
#69 = PERSON_AND_ORGANIZATION ( #874, #980 ) ;
#70 = APPROVAL_PERSON_ORGANIZATION ( #1171, #901, #644 ) ;
#71 = ORGANIZATION ( 'NAUO-ORG8', 'UNSPECIFIED', 'UNSPECIFIED' ) ;
#72 = PRODUCT_DEFINITION_SHAPE ( 'NONE', 'NONE',  #1383 ) ;
#73 = ITEM_DEFINED_TRANSFORMATION ( 'NONE', 'NONE', #1199,  #833 ) ;
#74 = DATE_AND_TIME ( #723, #1117 ) ;
#75 = ORIENTED_EDGE ( 'NONE', *, *, #341, .T. ) ;
#76 = SECURITY_CLASSIFICATION_LEVEL ( 'unclassified' ) ;
#77 = LOCAL_TIME ( 15, 26, 53.00000000000000000, #1085 ) ;
#78 = PERSON_AND_ORGANIZATION ( #128, #758 ) ;
#79 = COORDINATED_UNIVERSAL_TIME_OFFSET ( 8, 0, .BEHIND. ) ;
#80 = DIRECTION ( 'NONE',  ( 1.000000000000000000, 0.000000000000000000, 0.000000000000000000 ) ) ;
#81 = APPROVAL ( #1357, 'UNKNOWN' ) ;
#82 =( REPRESENTATION_RELATIONSHIP ('NONE','NONE', #416, #344 ) REPRESENTATION_RELATIONSHIP_WITH_TRANSFORMATION ( #811 )SHAPE_REPRESENTATION_RELATIONSHIP( ) );
#83 = DATE_AND_TIME ( #155, #1076 ) ;
#84 = DIRECTION ( 'NONE',  ( -0.000000000000000000, -0.000000000000000000, 1.000000000000000000 ) ) ;
#85 = CC_DESIGN_SECURITY_CLASSIFICATION ( #13, ( #1360 ) ) ;
#86 = DATE_AND_TIME ( #1155, #984 ) ;
#87 = CC_DESIGN_APPROVAL ( #974, ( #1184 ) ) ;
#88 = SHAPE_REPRESENTATION_RELATIONSHIP ( 'NONE' , 'NONE' ,  #344, #1238 ) ;
#89 = CALENDAR_DATE ( 2026, 11, 9 ) ;
#90 = DIRECTION ( 'NONE',  ( 0.000000000000000000, -0.000000000000000000, -1.000000000000000000 ) ) ;
#91 = DATE_AND_TIME ( #1159, #1313 ) ;
#92 = AXIS2_PLACEMENT_3D ( 'NONE', #339, #801, #675 ) ;
#93 = CALENDAR_DATE ( 2026, 11, 9 ) ;
#94 = DIRECTION ( 'NONE',  ( -1.224646799147356412E-16, 1.000000000000000000, 1.789277107948263341E-32 ) ) ;
#95 = COORDINATED_UNIVERSAL_TIME_OFFSET ( 8, 0, .BEHIND. ) ;
#96 = CARTESIAN_POINT ( 'NONE',  ( 2.000000000000000000, 0.000000000000000000, -2.000000000000000000 ) ) ;
#97 = PERSON_AND_ORGANIZATION_ROLE ( 'classification_officer' ) ;
#98 = AXIS2_PLACEMENT_3D ( 'NONE', #468, #132, #24 ) ;
#99 = SECURITY_CLASSIFICATION ( '', '', #759 ) ;
#100 = PERSON_AND_ORGANIZATION_ROLE ( 'classification_officer' ) ;
#101 = APPROVAL ( #433, 'UNSPECIFIED' ) ;
#102 = AXIS2_PLACEMENT_3D ( 'NONE', #636, #205, #526 ) ;
#103 = DATE_AND_TIME ( #527, #1292 ) ;
#104 = PRODUCT_DEFINITION ( 'UNKNOWN', '', #524, #680 ) ;
#105 = CARTESIAN_POINT ( 'NONE',  ( 0.1165344664968704508, 0.000000000000000000, 0.000000000000000000 ) ) ;
#106 = DIRECTION ( 'NONE',  ( 0.000000000000000000, 0.000000000000000000, -1.000000000000000000 ) ) ;
#107 = APPROVAL_ROLE ( '' ) ;
#108 = PERSON ( 'NAUO-PER4', 'UNSPECIFIED', 'UNSPECIFIED', ('UNSPECIFIED'), ('UNSPECIFIED'), ('UNSPECIFIED') ) ;
#109 = PERSON_AND_ORGANIZATION ( #1177, #39 ) ;
#110 = EDGE_CURVE ( 'NONE', #902, #929, #617, .T. ) ;
#111 = DIRECTION ( 'NONE',  ( 0.000000000000000000, 0.000000000000000000, -1.000000000000000000 ) ) ;
#112 = APPROVAL_DATE_TIME ( #210, #29 ) ;
#113 = CC_DESIGN_APPROVAL ( #1218, ( #601 ) ) ;
#114 = CC_DESIGN_PERSON_AND_ORGANIZATION_ASSIGNMENT ( #741, #100, ( #99 ) ) ;
#115 = PERSON_AND_ORGANIZATION ( #1241, #380 ) ;
#116 = COORDINATED_UNIVERSAL_TIME_OFFSET ( 8, 0, .BEHIND. ) ;
#117 = CLOSED_SHELL ( 'NONE', ( #54, #795, #1047, #888, #1248, #405 ) ) ;
#118 =( REPRESENTATION_RELATIONSHIP ('NONE','NONE', #416, #344 ) REPRESENTATION_RELATIONSHIP_WITH_TRANSFORMATION ( #250 )SHAPE_REPRESENTATION_RELATIONSHIP( ) );
#119 = CC_DESIGN_PERSON_AND_ORGANIZATION_ASSIGNMENT ( #1002, #456, ( #13 ) ) ;
#120 = APPROVAL_STATUS ( 'not_yet_approved' ) ;
#121 = AXIS2_PLACEMENT_3D ( 'NONE', #952, #683, #458 ) ;
#122 = PERSON_AND_ORGANIZATION ( #522, #606 ) ;
#123 = CC_DESIGN_DATE_AND_TIME_ASSIGNMENT ( #232, #1022, ( #566 ) ) ;
#124 = PERSON_AND_ORGANIZATION_ROLE ( 'classification_officer' ) ;
#125 = CALENDAR_DATE ( 2026, 11, 9 ) ;
#126 = PRODUCT_RELATED_PRODUCT_CATEGORY ( 'detail', '', ( #809 ) ) ;
#127 = SECURITY_CLASSIFICATION ( '', '', #363 ) ;
#128 = PERSON ( 'NAUO-PER16', 'UNSPECIFIED', 'UNSPECIFIED', ('UNSPECIFIED'), ('UNSPECIFIED'), ('UNSPECIFIED') ) ;
#129 = LOCAL_TIME ( 15, 26, 53.00000000000000000, #757 ) ;
#130 = DATE_AND_TIME ( #329, #59 ) ;
#131 = APPROVAL_ROLE ( '' ) ;
#132 = DIRECTION ( 'NONE',  ( 1.000000000000000000, 0.000000000000000000, 0.000000000000000000 ) ) ;
#133 = APPROVAL_PERSON_ORGANIZATION ( #1176, #101, #207 ) ;
#134 = CC_DESIGN_APPROVAL ( #35, ( #560 ) ) ;
#135 = CC_DESIGN_PERSON_AND_ORGANIZATION_ASSIGNMENT ( #175, #1039, ( #486 ) ) ;
#136 = DATE_AND_TIME ( #248, #814 ) ;
#137 = ITEM_DEFINED_TRANSFORMATION ( 'NONE', 'NONE', #591,  #833 ) ;
#138 = DIRECTION ( 'NONE',  ( -0.000000000000000000, -1.000000000000000000, -0.000000000000000000 ) ) ;
#139 = CC_DESIGN_PERSON_AND_ORGANIZATION_ASSIGNMENT ( #1344, #1239, ( #206 ) ) ;
#140 = COORDINATED_UNIVERSAL_TIME_OFFSET ( 8, 0, .BEHIND. ) ;
#141 = CARTESIAN_POINT ( 'NONE',  ( 0.000000000000000000, 0.000000000000000000, 0.000000000000000000 ) ) ;
#142 = ORIENTED_EDGE ( 'NONE', *, *, #439, .F. ) ;
#143 = PRODUCT_DEFINITION_SHAPE ( 'NONE', 'NONE',  #1367 ) ;
#144 = ITEM_DEFINED_TRANSFORMATION ( 'NONE', 'NONE', #1017,  #833 ) ;
#145 = DIRECTION ( 'NONE',  ( -1.000000000000000000, -0.000000000000000000, -0.000000000000000000 ) ) ;
#146 =( LENGTH_UNIT ( ) NAMED_UNIT ( * ) SI_UNIT ( .CENTI., .METRE. ) );
#147 =( REPRESENTATION_RELATIONSHIP ('NONE','NONE', #416, #344 ) REPRESENTATION_RELATIONSHIP_WITH_TRANSFORMATION ( #304 )SHAPE_REPRESENTATION_RELATIONSHIP( ) );
#148 = EDGE_CURVE ( 'NONE', #1244, #256, #1070, .T. ) ;
#149 = SECURITY_CLASSIFICATION ( '', '', #1127 ) ;
#150 = FACE_OUTER_BOUND ( 'NONE', #67, .T. ) ;
#151 = ITEM_DEFINED_TRANSFORMATION ( 'NONE', 'NONE', #531,  #833 ) ;
#152 = PERSON_AND_ORGANIZATION_ROLE ( 'classification_officer' ) ;
#153 = DIRECTION ( 'NONE',  ( -0.9239195927440781997, 0.000000000000000000, 0.3825867040862979684 ) ) ;
#154 = APPROVAL_PERSON_ORGANIZATION ( #835, #237, #908 ) ;
#155 = CALENDAR_DATE ( 2026, 11, 9 ) ;
#156 = ORIENTED_EDGE ( 'NONE', *, *, #451, .T. ) ;
#157 = AXIS2_PLACEMENT_3D ( 'NONE', #911, #810, #528 ) ;
#158 = DATE_AND_TIME ( #826, #965 ) ;
#159 = APPROVAL ( #1346, 'UNSPECIFIED' ) ;
#160 = PERSON_AND_ORGANIZATION ( #173, #817 ) ;
#161 = LINE ( 'NONE', #33, #449 ) ;
#162 = CC_DESIGN_PERSON_AND_ORGANIZATION_ASSIGNMENT ( #530, #845, ( #1297 ) ) ;
#163 = AXIS2_PLACEMENT_3D ( 'NONE', #476, #682, #457 ) ;
#164 = DIRECTION ( 'NONE',  ( -1.224646799147356412E-16, 1.000000000000000000, 1.789277107948263341E-32 ) ) ;
#165 = CALENDAR_DATE ( 2026, 11, 9 ) ;
#166 = FACE_OUTER_BOUND ( 'NONE', #1296, .T. ) ;
#167 = AXIS2_PLACEMENT_3D ( 'NONE', #1334, #926, #493 ) ;
#168 = COORDINATED_UNIVERSAL_TIME_OFFSET ( 8, 0, .BEHIND. ) ;
#169 = SECURITY_CLASSIFICATION_LEVEL ( 'unclassified' ) ;
#170 = APPROVAL_DATE_TIME ( #74, #494 ) ;
#171 = PRODUCT_DEFINITION_SHAPE ( 'NONE', 'NONE',  #1137 ) ;
#172 = ORIENTED_EDGE ( 'NONE', *, *, #1338, .T. ) ;
#173 = PERSON ( 'NAUO-PER5', 'UNSPECIFIED', 'UNSPECIFIED', ('UNSPECIFIED'), ('UNSPECIFIED'), ('UNSPECIFIED') ) ;
#174 = SECURITY_CLASSIFICATION_LEVEL ( 'unclassified' ) ;
#175 = PERSON_AND_ORGANIZATION ( #373, #1226 ) ;
#176 = LOCAL_TIME ( 15, 26, 53.00000000000000000, #481 ) ;
#177 = APPROVAL_DATE_TIME ( #53, #35 ) ;
#178 = APPROVAL_PERSON_ORGANIZATION ( #1143, #570, #938 ) ;
#179 = CALENDAR_DATE ( 2026, 11, 9 ) ;
#180 = ORIENTED_EDGE ( 'NONE', *, *, #295, .F. ) ;
#181 = CONTEXT_DEPENDENT_SHAPE_REPRESENTATION ( #1318, #727 ) ;
#182 = CC_DESIGN_PERSON_AND_ORGANIZATION_ASSIGNMENT ( #69, #720, ( #1205 ) ) ;
#183 = SECURITY_CLASSIFICATION_LEVEL ( 'unclassified' ) ;
#184 = DIRECTION ( 'NONE',  ( 0.2803638829204862515, 3.433467318150973489E-17, 0.9598937926425757938 ) ) ;
#185 = DATE_TIME_ROLE ( 'classification_date' ) ;
#186 = CARTESIAN_POINT ( 'NONE',  ( 0.000000000000000000, 0.000000000000000000, 0.000000000000000000 ) ) ;
#187 = APPROVAL_DATE_TIME ( #1134, #570 ) ;
#188 = APPROVAL_PERSON_ORGANIZATION ( #741, #507, #212 ) ;
#189 = APPROVAL_DATE_TIME ( #1136, #1179 ) ;
#190 = APPROVAL_DATE_TIME ( #86, #383 ) ;
#191 = CARTESIAN_POINT ( 'NONE',  ( 1.121012091608992289, 0.6409062464593344721, 1.858121847350324263 ) ) ;
#192 = PERSON_AND_ORGANIZATION ( #1177, #39 ) ;
#193 =( REPRESENTATION_RELATIONSHIP ('NONE','NONE', #416, #344 ) REPRESENTATION_RELATIONSHIP_WITH_TRANSFORMATION ( #144 )SHAPE_REPRESENTATION_RELATIONSHIP( ) );
#194 = FACE_OUTER_BOUND ( 'NONE', #894, .T. ) ;
#195 = CC_DESIGN_PERSON_AND_ORGANIZATION_ASSIGNMENT ( #334, #454, ( #431 ) ) ;
#196 = APPROVAL_ROLE ( '' ) ;
#197 = CC_DESIGN_SECURITY_CLASSIFICATION ( #1205, ( #1378 ) ) ;
#198 = DIRECTION ( 'NONE',  ( -1.224646799147356412E-16, 1.000000000000000000, 1.789277107948263341E-32 ) ) ;
#199 = PERSON_AND_ORGANIZATION ( #1177, #39 ) ;
#200 = DIRECTION ( 'NONE',  ( 1.000000000000000000, 0.000000000000000000, 0.000000000000000000 ) ) ;
#201 = CALENDAR_DATE ( 2026, 11, 9 ) ;
#202 = CC_DESIGN_DATE_AND_TIME_ASSIGNMENT ( #1352, #185, ( #264 ) ) ;
#203 = DATE_AND_TIME ( #1270, #1305 ) ;
#204 = ADVANCED_FACE ( 'NONE', ( #194 ), #1007, .F. ) ;
#205 = DIRECTION ( 'NONE',  ( 0.2803638829204862515, 3.433467318150973489E-17, 0.9598937926425757938 ) ) ;
#206 = SECURITY_CLASSIFICATION ( '', '', #597 ) ;
#207 = APPROVAL_ROLE ( '' ) ;
#208 = CC_DESIGN_DATE_AND_TIME_ASSIGNMENT ( #435, #216, ( #1297 ) ) ;
#209 = DIRECTION ( 'NONE',  ( -1.000000000000000000, -0.000000000000000000, -0.000000000000000000 ) ) ;
#210 = DATE_AND_TIME ( #1192, #259 ) ;
#211 = ORGANIZATION ( 'NAUO-ORG9', 'UNSPECIFIED', 'UNSPECIFIED' ) ;
#212 = APPROVAL_ROLE ( '' ) ;
#213 = SECURITY_CLASSIFICATION_LEVEL ( 'unclassified' ) ;
#214 = PLANE ( 'NONE',  #686 ) ;
#215 = FACE_OUTER_BOUND ( 'NONE', #1324, .T. ) ;
#216 = DATE_TIME_ROLE ( 'classification_date' ) ;
#217 =( REPRESENTATION_RELATIONSHIP ('NONE','NONE', #416, #344 ) REPRESENTATION_RELATIONSHIP_WITH_TRANSFORMATION ( #137 )SHAPE_REPRESENTATION_RELATIONSHIP( ) );
#218 = DATE_AND_TIME ( #1279, #1097 ) ;
#219 = CALENDAR_DATE ( 2026, 11, 9 ) ;
#220 =( REPRESENTATION_RELATIONSHIP ('NONE','NONE', #416, #344 ) REPRESENTATION_RELATIONSHIP_WITH_TRANSFORMATION ( #804 )SHAPE_REPRESENTATION_RELATIONSHIP( ) );
#221 = APPROVAL_ROLE ( '' ) ;
#222 = PERSON_AND_ORGANIZATION_ROLE ( 'classification_officer' ) ;
#223 = AXIS2_PLACEMENT_3D ( 'NONE', #876, #1311, #164 ) ;
#224 = PERSON_AND_ORGANIZATION ( #1177, #39 ) ;
#225 = DATE_AND_TIME ( #382, #236 ) ;
#226 = AXIS2_PLACEMENT_3D ( 'NONE', #750, #200, #1228 ) ;
#227 = CALENDAR_DATE ( 2026, 11, 9 ) ;
#228 = LOCAL_TIME ( 15, 26, 53.00000000000000000, #1 ) ;
#229 = APPROVAL_ROLE ( '' ) ;
#230 = AXIS2_PLACEMENT_3D ( 'NONE', #1130, #716, #944 ) ;
#231 = SECURITY_CLASSIFICATION_LEVEL ( 'unclassified' ) ;
#232 = DATE_AND_TIME ( #447, #1243 ) ;
#233 = CARTESIAN_POINT ( 'NONE',  ( 0.000000000000000000, 0.2500000000000000000, 0.000000000000000000 ) ) ;
#234 = LOCAL_TIME ( 15, 26, 53.00000000000000000, #613 ) ;
#235 = LOCAL_TIME ( 15, 26, 53.00000000000000000, #467 ) ;
#236 = LOCAL_TIME ( 15, 26, 53.00000000000000000, #603 ) ;
#237 = APPROVAL ( #388, 'UNSPECIFIED' ) ;
#238 = COORDINATED_UNIVERSAL_TIME_OFFSET ( 8, 0, .BEHIND. ) ;
#239 = LINE ( 'NONE', #364, #453 ) ;
#240 = LOCAL_TIME ( 15, 26, 53.00000000000000000, #717 ) ;
#241 = ORGANIZATION ( 'NAUO-ORG6', 'UNSPECIFIED', 'UNSPECIFIED' ) ;
#242 = APPROVAL_ROLE ( '' ) ;
#243 = COORDINATED_UNIVERSAL_TIME_OFFSET ( 8, 0, .BEHIND. ) ;
#244 = DIRECTION ( 'NONE',  ( 0.000000000000000000, 0.000000000000000000, 1.000000000000000000 ) ) ;
#245 = AXIS2_PLACEMENT_3D ( 'NONE', #598, #1138, #622 ) ;
#246 = DIRECTION ( 'NONE',  ( -1.224646799147356412E-16, 1.000000000000000000, 1.789277107948263341E-32 ) ) ;
#247 = APPROVAL ( #547, 'UNKNOWN' ) ;
#248 = CALENDAR_DATE ( 2026, 11, 9 ) ;
#249 = PRODUCT_DEFINITION_SHAPE ( 'NONE', 'NONE',  #1369 ) ;
#250 = ITEM_DEFINED_TRANSFORMATION ( 'NONE', 'NONE', #411,  #833 ) ;
#251 = DIRECTION ( 'NONE',  ( -0.9239195927440781997, 4.685335825556203156E-17, -0.3825867040862979684 ) ) ;
#252 = DIRECTION ( 'NONE',  ( 0.2803638829204862515, 3.433467318150973489E-17, 0.9598937926425757938 ) ) ;
#253 = LOCAL_TIME ( 15, 26, 53.00000000000000000, #649 ) ;
#254 =( REPRESENTATION_RELATIONSHIP ('NONE','NONE', #416, #344 ) REPRESENTATION_RELATIONSHIP_WITH_TRANSFORMATION ( #1351 )SHAPE_REPRESENTATION_RELATIONSHIP( ) );
#255 = CC_DESIGN_APPROVAL ( #1179, ( #1205 ) ) ;
#256 = VERTEX_POINT ( 'NONE', #312 ) ;
#257 = PERSON ( 'NAUO-PER22', 'UNSPECIFIED', 'UNSPECIFIED', ('UNSPECIFIED'), ('UNSPECIFIED'), ('UNSPECIFIED') ) ;
#258 = ITEM_DEFINED_TRANSFORMATION ( 'NONE', 'NONE', #469,  #833 ) ;
#259 = LOCAL_TIME ( 15, 26, 53.00000000000000000, #3 ) ;
#260 = CC_DESIGN_PERSON_AND_ORGANIZATION_ASSIGNMENT ( #224, #533, ( #1224 ) ) ;
#261 = SECURITY_CLASSIFICATION_LEVEL ( 'unclassified' ) ;
#262 = DIRECTION ( 'NONE',  ( 0.2803638829204862515, 3.433467318150973489E-17, 0.9598937926425757938 ) ) ;
#263 = CC_DESIGN_DATE_AND_TIME_ASSIGNMENT ( #1105, #661, ( #878 ) ) ;
#264 = SECURITY_CLASSIFICATION ( '', '', #1131 ) ;
#265 = ORIENTED_EDGE ( 'NONE', *, *, #704, .F. ) ;
#266 = SECURITY_CLASSIFICATION_LEVEL ( 'unclassified' ) ;
#267 = CARTESIAN_POINT ( 'NONE',  ( -0.4789879083910076885, 0.6409062464593344721, 1.858121847350324263 ) ) ;
#268 = CONICAL_SURFACE ( 'NONE', #406, 0.002309798981860196072, 0.3925943860341560843 ) ;
#269 = PERSON_AND_ORGANIZATION_ROLE ( 'classification_officer' ) ;
#270 = CC_DESIGN_SECURITY_CLASSIFICATION ( #431, ( #1373 ) ) ;
#271 = VERTEX_POINT ( 'NONE', #1053 ) ;
#272 = APPROVAL_DATE_TIME ( #1071, #1218 ) ;
#273 = CALENDAR_DATE ( 2026, 11, 9 ) ;
#274 = DIRECTION ( 'NONE',  ( 0.000000000000000000, 0.000000000000000000, 1.000000000000000000 ) ) ;
#275 = PERSON_AND_ORGANIZATION_ROLE ( 'classification_officer' ) ;
#276 = CC_DESIGN_APPROVAL ( #1010, ( #1133 ) ) ;
#277 = PRODUCT_DEFINITION_SHAPE ( 'NONE', 'NONE',  #1382 ) ;
#278 = CC_DESIGN_PERSON_AND_ORGANIZATION_ASSIGNMENT ( #523, #500, ( #885 ) ) ;
#279 = ORIENTED_EDGE ( 'NONE', *, *, #1057, .F. ) ;
#280 = PERSON_AND_ORGANIZATION_ROLE ( 'classification_officer' ) ;
#281 = SECURITY_CLASSIFICATION_LEVEL ( 'unclassified' ) ;
#283 = CC_DESIGN_DATE_AND_TIME_ASSIGNMENT ( #607, #1049, ( #206 ) ) ;
#282 = DATE_AND_TIME ( #273, #747 ) ;
#284 = LOCAL_TIME ( 15, 26, 53.00000000000000000, #858 ) ;
#285 = COORDINATED_UNIVERSAL_TIME_OFFSET ( 8, 0, .BEHIND. ) ;
#286 =( REPRESENTATION_RELATIONSHIP ('NONE','NONE', #416, #344 ) REPRESENTATION_RELATIONSHIP_WITH_TRANSFORMATION ( #73 )SHAPE_REPRESENTATION_RELATIONSHIP( ) );
#287 = CARTESIAN_POINT ( 'NONE',  ( 2.000000000000000000, 0.2500000000000000000, 0.000000000000000000 ) ) ;
#288 = CC_DESIGN_APPROVAL ( #1160, ( #104 ) ) ;
#289 = ITEM_DEFINED_TRANSFORMATION ( 'NONE', 'NONE', #1265,  #833 ) ;
#290 =( REPRESENTATION_RELATIONSHIP ('NONE','NONE', #416, #344 ) REPRESENTATION_RELATIONSHIP_WITH_TRANSFORMATION ( #1077 )SHAPE_REPRESENTATION_RELATIONSHIP( ) );
#291 = PRODUCT_DEFINITION_SHAPE ( 'NONE', 'NONE',  #1376 ) ;
#292 = DIRECTION ( 'NONE',  ( 0.2803638829204862515, 3.433467318150973489E-17, 0.9598937926425757938 ) ) ;
#293 = APPROVAL_ROLE ( '' ) ;
#294 = CC_DESIGN_DATE_AND_TIME_ASSIGNMENT ( #130, #819, ( #628 ) ) ;
#295 = EDGE_CURVE ( 'NONE', #902, #574, #20, .T. ) ;
#296 = CARTESIAN_POINT ( 'NONE',  ( 2.000000000000000000, 0.2500000000000000000, -2.000000000000000000 ) ) ;
#297 = COORDINATED_UNIVERSAL_TIME_OFFSET ( 8, 0, .BEHIND. ) ;
#298 = AXIS2_PLACEMENT_3D ( 'NONE', #450, #262, #34 ) ;
#299 = COORDINATED_UNIVERSAL_TIME_OFFSET ( 8, 0, .BEHIND. ) ;
#300 = DIRECTION ( 'NONE',  ( 1.000000000000000000, 0.000000000000000000, 0.000000000000000000 ) ) ;
#301 = PERSON_AND_ORGANIZATION_ROLE ( 'design_owner' ) ;
#302 = CC_DESIGN_DATE_AND_TIME_ASSIGNMENT ( #829, #815, ( #698 ) ) ;
#303 = CARTESIAN_POINT ( 'NONE',  ( 0.000000000000000000, 0.2500000000000000000, 0.000000000000000000 ) ) ;
#304 = ITEM_DEFINED_TRANSFORMATION ( 'NONE', 'NONE', #1256,  #833 ) ;
#305 = EDGE_CURVE ( 'NONE', #487, #902, #963, .T. ) ;
#306 = COORDINATED_UNIVERSAL_TIME_OFFSET ( 8, 0, .BEHIND. ) ;
#307 = CC_DESIGN_SECURITY_CLASSIFICATION ( #149, ( #1377 ) ) ;
#308 = DIRECTION ( 'NONE',  ( -1.224646799147356412E-16, 1.000000000000000000, 1.789277107948263341E-32 ) ) ;
#309 = ORGANIZATION ( 'NAUO-ORG4', 'UNSPECIFIED', 'UNSPECIFIED' ) ;
#310 = MECHANICAL_CONTEXT ( 'NONE', #1293, 'mechanical' ) ;
#311 = CC_DESIGN_APPROVAL ( #452, ( #420 ) ) ;
#312 = CARTESIAN_POINT ( 'NONE',  ( 2.000000000000000000, 0.000000000000000000, 0.000000000000000000 ) ) ;
#313 = ORGANIZATION ( 'NAUO-ORG1', 'UNSPECIFIED', 'UNSPECIFIED' ) ;
#314 = PERSON_AND_ORGANIZATION_ROLE ( 'classification_officer' ) ;
#315 = LOCAL_TIME ( 15, 26, 53.00000000000000000, #386 ) ;
#316 = APPROVAL_DATE_TIME ( #860, #901 ) ;
#317 = CARTESIAN_POINT ( 'NONE',  ( 0.000000000000000000, 0.2500000000000000000, 0.000000000000000000 ) ) ;
#318 = CC_DESIGN_SECURITY_CLASSIFICATION ( #925, ( #1372 ) ) ;
#319 = APPROVAL_DATE_TIME ( #1285, #247 ) ;
#320 = COORDINATED_UNIVERSAL_TIME_OFFSET ( 8, 0, .BEHIND. ) ;
#321 = CC_DESIGN_PERSON_AND_ORGANIZATION_ASSIGNMENT ( #1325, #619, ( #149 ) ) ;
#322 = DATE_AND_TIME ( #201, #284 ) ;
#323 = APPROVAL_PERSON_ORGANIZATION ( #69, #1179, #376 ) ;
#324 = APPROVAL_DATE_TIME ( #973, #14 ) ;
#325 = ORGANIZATION ( 'NAUO-ORG24', 'UNSPECIFIED', 'UNSPECIFIED' ) ;
#326 = PERSON_AND_ORGANIZATION ( #770, #325 ) ;
#327 = CC_DESIGN_SECURITY_CLASSIFICATION ( #698, ( #524 ) ) ;
#328 =( REPRESENTATION_RELATIONSHIP ('NONE','NONE', #416, #344 ) REPRESENTATION_RELATIONSHIP_WITH_TRANSFORMATION ( #1257 )SHAPE_REPRESENTATION_RELATIONSHIP( ) );
#329 = CALENDAR_DATE ( 2026, 11, 9 ) ;
#330 = AXIS2_PLACEMENT_3D ( 'NONE', #783, #252, #666 ) ;
#331 = PERSON_AND_ORGANIZATION ( #1177, #39 ) ;
#332 = APPROVAL ( #1312, 'UNKNOWN' ) ;
#333 = AXIS2_PLACEMENT_3D ( 'NONE', #1158, #590, #883 ) ;
#334 = PERSON_AND_ORGANIZATION ( #1203, #1197 ) ;
#335 = CC_DESIGN_APPROVAL ( #332, ( #954 ) ) ;
#336 = APPROVAL_ROLE ( '' ) ;
#337 = DIRECTION ( 'NONE',  ( -0.000000000000000000, -1.000000000000000000, -0.000000000000000000 ) ) ;
#338 = LOCAL_TIME ( 15, 26, 53.00000000000000000, #610 ) ;
#339 = CARTESIAN_POINT ( 'NONE',  ( -0.4789879083910076885, 0.6409062464593344721, 0.2581218473503243405 ) ) ;
#340 = PRODUCT_RELATED_PRODUCT_CATEGORY ( 'detail', '', ( #10 ) ) ;
#341 = EDGE_CURVE ( 'NONE', #711, #574, #646, .T. ) ;
#342 = DIRECTION ( 'NONE',  ( 0.2803638829204862515, 3.433467318150973489E-17, 0.9598937926425757938 ) ) ;
#343 = DATE_AND_TIME ( #562, #1126 ) ;
#344 = SHAPE_REPRESENTATION ( 'MNsharp', ( #833 ), #1306 ) ;
#345 = APPROVAL_DATE_TIME ( #1214, #362 ) ;
#346 = CARTESIAN_POINT ( 'NONE',  ( 0.1100000000000000006, 0.000000000000000000, 0.000000000000000000 ) ) ;
#347 = CARTESIAN_POINT ( 'NONE',  ( 0.7210120916089922671, 0.6409062464593344721, 0.2581218473503243405 ) ) ;
#348 = CALENDAR_DATE ( 2026, 11, 9 ) ;
#349 = COORDINATED_UNIVERSAL_TIME_OFFSET ( 8, 0, .BEHIND. ) ;
#350 = APPROVAL_ROLE ( '' ) ;
#351 = DIRECTION ( 'NONE',  ( 0.000000000000000000, -1.000000000000000000, 0.000000000000000000 ) ) ;
#352 = PRODUCT_DEFINITION_SHAPE ( 'NONE', 'NONE',  #1366 ) ;
#353 =( REPRESENTATION_RELATIONSHIP ('NONE','NONE', #416, #344 ) REPRESENTATION_RELATIONSHIP_WITH_TRANSFORMATION ( #859 )SHAPE_REPRESENTATION_RELATIONSHIP( ) );
#354 = ORIENTED_EDGE ( 'NONE', *, *, #1057, .T. ) ;
#355 = PERSON_AND_ORGANIZATION_ROLE ( 'classification_officer' ) ;
#356 = DATE_AND_TIME ( #1321, #235 ) ;
#357 = PLANE ( 'NONE',  #1304 ) ;
#358 = APPROVAL_PERSON_ORGANIZATION ( #115, #1327, #854 ) ;
#359 = CALENDAR_DATE ( 2026, 11, 9 ) ;
#360 = PRODUCT_RELATED_PRODUCT_CATEGORY ( 'detail', '', ( #685 ) ) ;
#361 = ORIENTED_EDGE ( 'NONE', *, *, #305, .F. ) ;
#362 = APPROVAL ( #1227, 'UNKNOWN' ) ;
#363 = SECURITY_CLASSIFICATION_LEVEL ( 'unclassified' ) ;
#364 = CARTESIAN_POINT ( 'NONE',  ( 2.000000000000000000, 0.2500000000000000000, 0.000000000000000000 ) ) ;
#365 = DIRECTION ( 'NONE',  ( 1.000000000000000000, 0.000000000000000000, 0.000000000000000000 ) ) ;
#366 = LOCAL_TIME ( 15, 26, 53.00000000000000000, #1254 ) ;
#367 = EDGE_LOOP ( 'NONE', ( #1118, #1037, #602, #354 ) ) ;
#368 = COORDINATED_UNIVERSAL_TIME_OFFSET ( 8, 0, .BEHIND. ) ;
#369 = CC_DESIGN_SECURITY_CLASSIFICATION ( #885, ( #1382 ) ) ;
#370 = ITEM_DEFINED_TRANSFORMATION ( 'NONE', 'NONE', #1128,  #833 ) ;
#371 = CARTESIAN_POINT ( 'NONE',  ( 0.000000000000000000, 0.000000000000000000, 0.000000000000000000 ) ) ;
#372 = APPROVAL_DATE_TIME ( #379, #159 ) ;
#373 = PERSON ( 'NAUO-PER17', 'UNSPECIFIED', 'UNSPECIFIED', ('UNSPECIFIED'), ('UNSPECIFIED'), ('UNSPECIFIED') ) ;
#374 = ORIENTED_EDGE ( 'NONE', *, *, #692, .F. ) ;
#375 = CC_DESIGN_SECURITY_CLASSIFICATION ( #206, ( #1366 ) ) ;
#376 = APPROVAL_ROLE ( '' ) ;
#377 = CONTEXT_DEPENDENT_SHAPE_REPRESENTATION ( #217, #787 ) ;
#378 = DIRECTION ( 'NONE',  ( -1.224646799147356412E-16, 1.000000000000000000, 1.789277107948263341E-32 ) ) ;
#379 = DATE_AND_TIME ( #395, #763 ) ;
#380 = ORGANIZATION ( 'NAUO-ORG10', 'UNSPECIFIED', 'UNSPECIFIED' ) ;
#381 = ORIENTED_EDGE ( 'NONE', *, *, #1093, .F. ) ;
#382 = CALENDAR_DATE ( 2026, 11, 9 ) ;
#383 = APPROVAL ( #729, 'UNKNOWN' ) ;
#384 = COORDINATED_UNIVERSAL_TIME_OFFSET ( 8, 0, .BEHIND. ) ;
#385 = SECURITY_CLASSIFICATION ( '', '', #169 ) ;
#386 = COORDINATED_UNIVERSAL_TIME_OFFSET ( 8, 0, .BEHIND. ) ;
#387 = DIRECTION ( 'NONE',  ( -1.224646799147356412E-16, 1.000000000000000000, 1.789277107948263341E-32 ) ) ;
#388 = APPROVAL_STATUS ( 'not_yet_approved' ) ;
#389 = ORIENTED_EDGE ( 'NONE', *, *, #451, .F. ) ;
#390 = SECURITY_CLASSIFICATION_LEVEL ( 'unclassified' ) ;
#391 = CC_DESIGN_SECURITY_CLASSIFICATION ( #486, ( #1376 ) ) ;
#392 = DATE_TIME_ROLE ( 'classification_date' ) ;
#393 = PERSON_AND_ORGANIZATION_ROLE ( 'classification_officer' ) ;
#394 = DIRECTION ( 'NONE',  ( 0.000000000000000000, 0.000000000000000000, 1.000000000000000000 ) ) ;
#395 = CALENDAR_DATE ( 2026, 11, 9 ) ;
#396 = LOCAL_TIME ( 15, 26, 53.00000000000000000, #116 ) ;
#397 = CARTESIAN_POINT ( 'NONE',  ( 0.000000000000000000, 0.2500000000000000000, 0.000000000000000000 ) ) ;
#398 = PERSON_AND_ORGANIZATION ( #64, #1165 ) ;
#399 = AXIS2_PLACEMENT_3D ( 'NONE', #141, #1011, #365 ) ;
#400 = VECTOR ( 'NONE', #633, 100.0000000000000000 ) ;
#401 = APPLICATION_CONTEXT ( 'configuration controlled 3d designs of mechanical parts and assemblies' ) ;
#402 = DATE_TIME_ROLE ( 'classification_date' ) ;
#403 = CARTESIAN_POINT ( 'NONE',  ( 1.121012091608992289, 0.6409062464593344721, 1.458121847350324352 ) ) ;
#404 = PERSON_AND_ORGANIZATION ( #1177, #39 ) ;
#405 = ADVANCED_FACE ( 'NONE', ( #837 ), #214, .T. ) ;
#406 = AXIS2_PLACEMENT_3D ( 'NONE', #781, #145, #776 ) ;
#407 = CARTESIAN_POINT ( 'NONE',  ( 0.000000000000000000, 0.2500000000000000000, -2.000000000000000000 ) ) ;
#408 = ORGANIZATION ( 'NAUO-ORG13', 'UNSPECIFIED', 'UNSPECIFIED' ) ;
#409 = APPROVAL_STATUS ( 'not_yet_approved' ) ;
#410 = APPROVAL ( #976, 'UNKNOWN' ) ;
#411 = AXIS2_PLACEMENT_3D ( 'NONE', #916, #1258, #1042 ) ;
#412 = ITEM_DEFINED_TRANSFORMATION ( 'NONE', 'NONE', #245,  #833 ) ;
#413 = CARTESIAN_POINT ( 'NONE',  ( 0.7210120916089922671, 0.6409062464593344721, 1.058121847350324440 ) ) ;
#414 = SHAPE_DEFINITION_REPRESENTATION ( #171, #1119 ) ;
#415 = CARTESIAN_POINT ( 'NONE',  ( -99.89000000000000057, 0.000000000000000000, 0.000000000000000000 ) ) ;
#416 = SHAPE_REPRESENTATION ( 'MN', ( #399, #710, #50, #411, #1017, #591, #1199, #872, #230, #1128, #245, #773, #167, #896, #957, #531, #102, #121, #298, #1265, #469, #223, #92, #830, #1256, #867, #330 ), #1121 ) ;
#417 = APPROVAL_ROLE ( '' ) ;
#418 = ADVANCED_BREP_SHAPE_REPRESENTATION ( '', ( #1044, #833 ), #47 ) ;
#419 = APPROVAL_PERSON_ORGANIZATION ( #1325, #1316, #1255 ) ;
#420 = SECURITY_CLASSIFICATION ( '', '', #752 ) ;
#421 = PERSON ( 'NAUO-PER9', 'UNSPECIFIED', 'UNSPECIFIED', ('UNSPECIFIED'), ('UNSPECIFIED'), ('UNSPECIFIED') ) ;
#422 = CARTESIAN_POINT ( 'NONE',  ( 2.000000000000000000, 0.000000000000000000, 0.000000000000000000 ) ) ;
#423 = SECURITY_CLASSIFICATION_LEVEL ( 'unclassified' ) ;
#424 = CC_DESIGN_APPROVAL ( #1198, ( #264 ) ) ;
#425 = CALENDAR_DATE ( 2026, 11, 9 ) ;
#426 = LOCAL_TIME ( 15, 26, 53.00000000000000000, #1030 ) ;
#427 = DATE_AND_TIME ( #978, #852 ) ;
#428 = CC_DESIGN_DATE_AND_TIME_ASSIGNMENT ( #895, #1247, ( #149 ) ) ;
#429 = APPROVAL_ROLE ( '' ) ;
#430 =( REPRESENTATION_RELATIONSHIP ('NONE','NONE', #416, #344 ) REPRESENTATION_RELATIONSHIP_WITH_TRANSFORMATION ( #1263 )SHAPE_REPRESENTATION_RELATIONSHIP( ) );
#431 = SECURITY_CLASSIFICATION ( '', '', #662 ) ;
#432 = DATE_TIME_ROLE ( 'classification_date' ) ;
#433 = APPROVAL_STATUS ( 'not_yet_approved' ) ;
#434 =( REPRESENTATION_RELATIONSHIP ('NONE','NONE', #416, #344 ) REPRESENTATION_RELATIONSHIP_WITH_TRANSFORMATION ( #1110 )SHAPE_REPRESENTATION_RELATIONSHIP( ) );
#435 = DATE_AND_TIME ( #9, #491 ) ;
#436 = APPROVAL_STATUS ( 'not_yet_approved' ) ;
#437 = APPROVAL_PERSON_ORGANIZATION ( #968, #1262, #229 ) ;
#438 = CC_DESIGN_PERSON_AND_ORGANIZATION_ASSIGNMENT ( #115, #222, ( #1349 ) ) ;
#439 = EDGE_CURVE ( 'NONE', #929, #824, #1267, .T. ) ;
#440 = CC_DESIGN_SECURITY_CLASSIFICATION ( #954, ( #1374 ) ) ;
#441 = APPROVAL_STATUS ( 'not_yet_approved' ) ;
#442 = LOCAL_TIME ( 15, 26, 53.00000000000000000, #297 ) ;
#443 = DATE_AND_TIME ( #1185, #784 ) ;
#444 = DATE_AND_TIME ( #1194, #515 ) ;
#445 = PERSON ( 'NAUO-PER18', 'UNSPECIFIED', 'UNSPECIFIED', ('UNSPECIFIED'), ('UNSPECIFIED'), ('UNSPECIFIED') ) ;
#446 = CC_DESIGN_PERSON_AND_ORGANIZATION_ASSIGNMENT ( #495, #275, ( #264 ) ) ;
#447 = CALENDAR_DATE ( 2026, 11, 9 ) ;
#448 = DIRECTION ( 'NONE',  ( -1.000000000000000000, 0.000000000000000000, -0.000000000000000000 ) ) ;
#449 = VECTOR ( 'NONE', #153, 100.0000000000000000 ) ;
#450 = CARTESIAN_POINT ( 'NONE',  ( -0.07898790839100770789, 0.6409062464593344721, 0.6581218473503243072 ) ) ;
#451 = EDGE_CURVE ( 'NONE', #1132, #702, #971, .T. ) ;
#452 = APPROVAL ( #657, 'UNKNOWN' ) ;
#453 = VECTOR ( 'NONE', #1215, 100.0000000000000000 ) ;
#454 = PERSON_AND_ORGANIZATION_ROLE ( 'classification_officer' ) ;
#455 = CONTEXT_DEPENDENT_SHAPE_REPRESENTATION ( #82, #277 ) ;
#456 = PERSON_AND_ORGANIZATION_ROLE ( 'classification_officer' ) ;
#457 = DIRECTION ( 'NONE',  ( 0.000000000000000000, 0.000000000000000000, 1.000000000000000000 ) ) ;
#458 = DIRECTION ( 'NONE',  ( -1.224646799147356412E-16, 1.000000000000000000, 1.789277107948263341E-32 ) ) ;
#459 = CC_DESIGN_APPROVAL ( #864, ( #566 ) ) ;
#460 = ORIENTED_EDGE ( 'NONE', *, *, #1200, .T. ) ;
#461 = CC_DESIGN_SECURITY_CLASSIFICATION ( #1133, ( #1361 ) ) ;
#462 = DATE_AND_TIME ( #227, #1217 ) ;
#463 = PERSON_AND_ORGANIZATION_ROLE ( 'classification_officer' ) ;
#464 = CARTESIAN_POINT ( 'NONE',  ( 0.000000000000000000, 0.2500000000000000000, 0.000000000000000000 ) ) ;
#465 = CARTESIAN_POINT ( 'NONE',  ( 0.7210120916089922671, 0.6409062464593344721, 0.6581218473503243072 ) ) ;
#466 = DATE_TIME_ROLE ( 'classification_date' ) ;
#467 = COORDINATED_UNIVERSAL_TIME_OFFSET ( 8, 0, .BEHIND. ) ;
#468 = CARTESIAN_POINT ( 'NONE',  ( 0.000000000000000000, 0.000000000000000000, 0.000000000000000000 ) ) ;
#469 = AXIS2_PLACEMENT_3D ( 'NONE', #465, #1216, #1004 ) ;
#470 = CC_DESIGN_PERSON_AND_ORGANIZATION_ASSIGNMENT ( #1143, #1355, ( #1092 ) ) ;
#471 = AXIS2_PLACEMENT_3D ( 'NONE', #1125, #1006, #40 ) ;
#472 = ORIENTED_EDGE ( 'NONE', *, *, #942, .F. ) ;
#473 = CALENDAR_DATE ( 2026, 11, 9 ) ;
#474 = CIRCLE ( 'NONE', #333, 0.04555000000000002103 ) ;
#475 = DATE_AND_TIME ( #23, #714 ) ;
#476 = CARTESIAN_POINT ( 'NONE',  ( 2.000000000000000000, 0.2500000000000000000, 0.000000000000000000 ) ) ;
#477 =( REPRESENTATION_RELATIONSHIP ('NONE','NONE', #416, #344 ) REPRESENTATION_RELATIONSHIP_WITH_TRANSFORMATION ( #370 )SHAPE_REPRESENTATION_RELATIONSHIP( ) );
#478 = DIRECTION ( 'NONE',  ( -1.224646799147356412E-16, 1.000000000000000000, 1.789277107948263341E-32 ) ) ;
#479 = AXIS2_PLACEMENT_3D ( 'NONE', #828, #1156, #80 ) ;
#480 = ORIENTED_EDGE ( 'NONE', *, *, #1191, .T. ) ;
#481 = COORDINATED_UNIVERSAL_TIME_OFFSET ( 8, 0, .BEHIND. ) ;
#482 = PRODUCT_DEFINITION_SHAPE ( 'NONE', 'NONE',  #1362 ) ;
#483 = APPROVAL_ROLE ( '' ) ;
#484 = LINE ( 'NONE', #664, #771 ) ;
#485 = SHAPE_DEFINITION_REPRESENTATION ( #670, #416 ) ;
#486 = SECURITY_CLASSIFICATION ( '', '', #183 ) ;
#487 = VERTEX_POINT ( 'NONE', #296 ) ;
#488 = COORDINATED_UNIVERSAL_TIME_OFFSET ( 8, 0, .BEHIND. ) ;
#489 = APPROVAL_PERSON_ORGANIZATION ( #1094, #362, #579 ) ;
#490 = DATE_AND_TIME ( #1029, #936 ) ;
#491 = LOCAL_TIME ( 15, 26, 53.00000000000000000, #1295 ) ;
#492 = PERSON_AND_ORGANIZATION_ROLE ( 'classification_officer' ) ;
#493 = DIRECTION ( 'NONE',  ( -1.224646799147356412E-16, 1.000000000000000000, 1.789277107948263341E-32 ) ) ;
#494 = APPROVAL ( #928, 'UNSPECIFIED' ) ;
#495 = PERSON_AND_ORGANIZATION ( #1177, #39 ) ;
#496 = CC_DESIGN_SECURITY_CLASSIFICATION ( #264, ( #519 ) ) ;
#497 =( REPRESENTATION_RELATIONSHIP ('NONE','NONE', #416, #344 ) REPRESENTATION_RELATIONSHIP_WITH_TRANSFORMATION ( #970 )SHAPE_REPRESENTATION_RELATIONSHIP( ) );
#498 = EDGE_LOOP ( 'NONE', ( #803, #1234, #1019 ) ) ;
#499 = CC_DESIGN_SECURITY_CLASSIFICATION ( #560, ( #1367 ) ) ;
#500 = PERSON_AND_ORGANIZATION_ROLE ( 'classification_officer' ) ;
#501 = PRODUCT_DEFINITION_SHAPE ( 'NONE', 'NONE',  #1378 ) ;
#502 = CALENDAR_DATE ( 2026, 11, 9 ) ;
#503 = APPROVAL_ROLE ( '' ) ;
#504 = CC_DESIGN_APPROVAL ( #507, ( #99 ) ) ;
#505 = ORIENTED_EDGE ( 'NONE', *, *, #110, .T. ) ;
#506 = PERSON_AND_ORGANIZATION_ROLE ( 'classification_officer' ) ;
#507 = APPROVAL ( #436, 'UNKNOWN' ) ;
#508 = PERSON_AND_ORGANIZATION ( #746, #241 ) ;
#509 = PERSON_AND_ORGANIZATION_ROLE ( 'design_supplier' ) ;
#510 = PRODUCT_DEFINITION_SHAPE ( 'NONE', 'NONE',  #1381 ) ;
#511 =( REPRESENTATION_RELATIONSHIP ('NONE','NONE', #416, #344 ) REPRESENTATION_RELATIONSHIP_WITH_TRANSFORMATION ( #886 )SHAPE_REPRESENTATION_RELATIONSHIP( ) );
#512 = CC_DESIGN_APPROVAL ( #1262, ( #1224 ) ) ;
#513 = CARTESIAN_POINT ( 'NONE',  ( 0.1109564667602157551, 0.000000000000000000, 0.000000000000000000 ) ) ;
#514 = DATE_TIME_ROLE ( 'classification_date' ) ;
#515 = LOCAL_TIME ( 15, 26, 53.00000000000000000, #1320 ) ;
#516 = CALENDAR_DATE ( 2026, 11, 9 ) ;
#517 = DIRECTION ( 'NONE',  ( 0.2803638829204862515, 3.433467318150973489E-17, 0.9598937926425757938 ) ) ;
#518 = PERSON_AND_ORGANIZATION ( #1177, #39 ) ;
#519 = PRODUCT_DEFINITION_FORMATION_WITH_SPECIFIED_SOURCE ( 'ANY', '', #10, .NOT_KNOWN. ) ;
#520 = CC_DESIGN_PERSON_AND_ORGANIZATION_ASSIGNMENT ( #1291, #548, ( #669 ) ) ;
#521 = DIRECTION ( 'NONE',  ( 1.000000000000000000, 0.000000000000000000, 0.000000000000000000 ) ) ;
#522 = PERSON ( 'NAUO-PER25', 'UNSPECIFIED', 'UNSPECIFIED', ('UNSPECIFIED'), ('UNSPECIFIED'), ('UNSPECIFIED') ) ;
#523 = PERSON_AND_ORGANIZATION ( #1084, #740 ) ;
#524 = PRODUCT_DEFINITION_FORMATION_WITH_SPECIFIED_SOURCE ( 'ANY', '', #809, .NOT_KNOWN. ) ;
#525 = CC_DESIGN_PERSON_AND_ORGANIZATION_ASSIGNMENT ( #556, #463, ( #1133 ) ) ;
#526 = DIRECTION ( 'NONE',  ( -1.224646799147356412E-16, 1.000000000000000000, 1.789277107948263341E-32 ) ) ;
#527 = CALENDAR_DATE ( 2026, 11, 9 ) ;
#528 = DIRECTION ( 'NONE',  ( 0.000000000000000000, 0.000000000000000000, -1.000000000000000000 ) ) ;
#529 = LOCAL_TIME ( 15, 26, 53.00000000000000000, #1213 ) ;
#530 = PERSON_AND_ORGANIZATION ( #1328, #966 ) ;
#531 = AXIS2_PLACEMENT_3D ( 'NONE', #413, #840, #1271 ) ;
#532 = DATE_AND_TIME ( #348, #25 ) ;
#533 = PERSON_AND_ORGANIZATION_ROLE ( 'classification_officer' ) ;
#534 = LOCAL_TIME ( 15, 26, 53.00000000000000000, #780 ) ;
#535 = PLANE ( 'NONE',  #656 ) ;
#536 = DATE_TIME_ROLE ( 'classification_date' ) ;
#537 = CC_DESIGN_DATE_AND_TIME_ASSIGNMENT ( #832, #949, ( #885 ) ) ;
#538 = DATE_TIME_ROLE ( 'classification_date' ) ;
#539 = DATE_AND_TIME ( #8, #1032 ) ;
#540 = CC_DESIGN_APPROVAL ( #782, ( #885 ) ) ;
#541 = DIRECTION ( 'NONE',  ( 0.000000000000000000, 0.000000000000000000, 1.000000000000000000 ) ) ;
#542 = APPROVAL ( #588, 'UNKNOWN' ) ;
#543 = APPROVAL_DATE_TIME ( #443, #410 ) ;
#544 = DATE_TIME_ROLE ( 'classification_date' ) ;
#545 = DATE_AND_TIME ( #755, #862 ) ;
#546 = CONTEXT_DEPENDENT_SHAPE_REPRESENTATION ( #290, #715 ) ;
#547 = APPROVAL_STATUS ( 'not_yet_approved' ) ;
#548 = PERSON_AND_ORGANIZATION_ROLE ( 'creator' ) ;
#549 = APPLICATION_CONTEXT ( 'configuration controlled 3d designs of mechanical parts and assemblies' ) ;
#550 = APPROVAL_DATE_TIME ( #1082, #452 ) ;
#551 = CC_DESIGN_PERSON_AND_ORGANIZATION_ASSIGNMENT ( #736, #1232, ( #519 ) ) ;
#552 = COORDINATED_UNIVERSAL_TIME_OFFSET ( 8, 0, .BEHIND. ) ;
#553 = CIRCLE ( 'NONE', #226, 0.04825586317211318088 ) ;
#554 = APPROVAL_PERSON_ORGANIZATION ( #398, #974, #719 ) ;
#555 = CC_DESIGN_PERSON_AND_ORGANIZATION_ASSIGNMENT ( #199, #918, ( #524 ) ) ;
#556 = PERSON_AND_ORGANIZATION ( #855, #645 ) ;
#557 = APPROVAL_PERSON_ORGANIZATION ( #326, #29, #221 ) ;
#558 = APPROVAL_DATE_TIME ( #462, #1083 ) ;
#559 = CARTESIAN_POINT ( 'NONE',  ( 0.000000000000000000, 0.2500000000000000000, 0.000000000000000000 ) ) ;
#560 = SECURITY_CLASSIFICATION ( '', '', #261 ) ;
#561 = APPLICATION_PROTOCOL_DEFINITION ( 'international standard', 'config_control_design', 1994, #935 ) ;
#562 = CALENDAR_DATE ( 2026, 11, 9 ) ;
#563 = CC_DESIGN_SECURITY_CLASSIFICATION ( #975, ( #1371 ) ) ;
#564 = CARTESIAN_POINT ( 'NONE',  ( 2.000000000000000000, 0.2500000000000000000, 0.000000000000000000 ) ) ;
#565 = MECHANICAL_CONTEXT ( 'NONE', #935, 'mechanical' ) ;
#566 = SECURITY_CLASSIFICATION ( '', '', #993 ) ;
#567 = ORIENTED_EDGE ( 'NONE', *, *, #148, .T. ) ;
#568 = PRODUCT_DEFINITION_SHAPE ( 'NONE', 'NONE',  #1365 ) ;
#569 = APPROVAL_ROLE ( '' ) ;
#570 = APPROVAL ( #409, 'UNKNOWN' ) ;
#571 = COORDINATED_UNIVERSAL_TIME_OFFSET ( 8, 0, .BEHIND. ) ;
#572 = DIRECTION ( 'NONE',  ( -0.000000000000000000, -1.000000000000000000, -0.000000000000000000 ) ) ;
#573 = CC_DESIGN_APPROVAL ( #691, ( #628 ) ) ;
#574 = VERTEX_POINT ( 'NONE', #733 ) ;
#575 =( REPRESENTATION_RELATIONSHIP ('NONE','NONE', #416, #344 ) REPRESENTATION_RELATIONSHIP_WITH_TRANSFORMATION ( #1104 )SHAPE_REPRESENTATION_RELATIONSHIP( ) );
#576 = APPROVAL_PERSON_ORGANIZATION ( #945, #494, #293 ) ;
#577 = CONTEXT_DEPENDENT_SHAPE_REPRESENTATION ( #511, #1135 ) ;
#578 = UNCERTAINTY_MEASURE_WITH_UNIT (LENGTH_MEASURE( 1.000000000000000082E-05 ), #1123, 'distance_accuracy_value', 'NONE');
#579 = APPROVAL_ROLE ( '' ) ;
#580 = LINE ( 'NONE', #564, #1196 ) ;
#581 = CC_DESIGN_APPROVAL ( #237, ( #519 ) ) ;
#582 = DIRECTION ( 'NONE',  ( 0.2803638829204862515, 3.433467318150973489E-17, 0.9598937926425757938 ) ) ;
#583 = CONICAL_SURFACE ( 'NONE', #471, 41.40909090909092072, 0.3925943860341560843 ) ;
#584 = ORIENTED_EDGE ( 'NONE', *, *, #650, .T. ) ;
#585 = CC_DESIGN_DATE_AND_TIME_ASSIGNMENT ( #1201, #466, ( #431 ) ) ;
#586 = APPROVAL_STATUS ( 'not_yet_approved' ) ;
#587 = AXIS2_PLACEMENT_3D ( 'NONE', #1260, #725, #948 ) ;
#588 = APPROVAL_STATUS ( 'not_yet_approved' ) ;
#589 = DIRECTION ( 'NONE',  ( 0.000000000000000000, 0.000000000000000000, 1.000000000000000000 ) ) ;
#590 = DIRECTION ( 'NONE',  ( 1.000000000000000000, 0.000000000000000000, 0.000000000000000000 ) ) ;
#591 = AXIS2_PLACEMENT_3D ( 'NONE', #608, #184, #387 ) ;
#592 = PLANE ( 'NONE',  #157 ) ;
#593 = PERSON_AND_ORGANIZATION ( #638, #1001 ) ;
#594 = CONTEXT_DEPENDENT_SHAPE_REPRESENTATION ( #653, #291 ) ;
#595 = CC_DESIGN_PERSON_AND_ORGANIZATION_ASSIGNMENT ( #1033, #709, ( #519 ) ) ;
#596 = PRODUCT_DEFINITION_SHAPE ( 'NONE', 'NONE',  #1368 ) ;
#597 = SECURITY_CLASSIFICATION_LEVEL ( 'unclassified' ) ;
#598 = CARTESIAN_POINT ( 'NONE',  ( 0.7210120916089922671, 0.6409062464593344721, 1.458121847350324352 ) ) ;
#599 = EDGE_CURVE ( 'NONE', #256, #711, #1166, .T. ) ;
#600 = APPLICATION_PROTOCOL_DEFINITION ( 'international standard', 'config_control_design', 1994, #401 ) ;
#601 = SECURITY_CLASSIFICATION ( '', '', #1120 ) ;
#602 = ORIENTED_EDGE ( 'NONE', *, *, #1338, .F. ) ;
#603 = COORDINATED_UNIVERSAL_TIME_OFFSET ( 8, 0, .BEHIND. ) ;
#604 = MANIFOLD_SOLID_BREP ( 'Shell1', #889 ) ;
#605 = DATE_AND_TIME ( #1330, #234 ) ;
#606 = ORGANIZATION ( 'NAUO-ORG25', 'UNSPECIFIED', 'UNSPECIFIED' ) ;
#607 = DATE_AND_TIME ( #516, #315 ) ;
#608 = CARTESIAN_POINT ( 'NONE',  ( 0.7210120916089922671, 0.6409062464593344721, 1.858121847350324263 ) ) ;
#609 = PERSON ( 'NAUO-PER1', 'UNSPECIFIED', 'UNSPECIFIED', ('UNSPECIFIED'), ('UNSPECIFIED'), ('UNSPECIFIED') ) ;
#610 = COORDINATED_UNIVERSAL_TIME_OFFSET ( 8, 0, .BEHIND. ) ;
#611 = EDGE_LOOP ( 'NONE', ( #1354, #1027, #1210, #920 ) ) ;
#612 = CALENDAR_DATE ( 2026, 11, 9 ) ;
#613 = COORDINATED_UNIVERSAL_TIME_OFFSET ( 8, 0, .BEHIND. ) ;
#614 = DIRECTION ( 'NONE',  ( 0.2803638829204862515, 3.433467318150973489E-17, 0.9598937926425757938 ) ) ;
#615 = APPROVAL_DATE_TIME ( #1266, #237 ) ;
#616 = CC_DESIGN_APPROVAL ( #890, ( #431 ) ) ;
#617 = LINE ( 'NONE', #317, #1078 ) ;
#618 = CALENDAR_DATE ( 2026, 11, 9 ) ;
#619 = PERSON_AND_ORGANIZATION_ROLE ( 'classification_officer' ) ;
#620 = CC_DESIGN_DATE_AND_TIME_ASSIGNMENT ( #1059, #1183, ( #1224 ) ) ;
#621 = CALENDAR_DATE ( 2026, 11, 9 ) ;
#622 = DIRECTION ( 'NONE',  ( -1.224646799147356412E-16, 1.000000000000000000, 1.789277107948263341E-32 ) ) ;
#623 = PERSON_AND_ORGANIZATION ( #1177, #39 ) ;
#624 = APPROVAL ( #45, 'UNKNOWN' ) ;
#625 = CC_DESIGN_SECURITY_CLASSIFICATION ( #1224, ( #669 ) ) ;
#626 = CARTESIAN_POINT ( 'NONE',  ( 0.000000000000000000, 0.000000000000000000, -2.000000000000000000 ) ) ;
#627 = APPROVAL_DATE_TIME ( #91, #782 ) ;
#628 = SECURITY_CLASSIFICATION ( '', '', #767 ) ;
#629 = LOCAL_TIME ( 15, 26, 53.00000000000000000, #488 ) ;
#630 = APPROVAL_DATE_TIME ( #1289, #1327 ) ;
#631 = CARTESIAN_POINT ( 'NONE',  ( -0.4789879083910076885, 0.6409062464593344721, 1.458121847350324352 ) ) ;
#632 = APPROVAL_STATUS ( 'not_yet_approved' ) ;
#633 = DIRECTION ( 'NONE',  ( -1.000000000000000000, -0.000000000000000000, -0.000000000000000000 ) ) ;
#634 = APPROVAL_PERSON_ORGANIZATION ( #508, #383, #827 ) ;
#635 = COORDINATED_UNIVERSAL_TIME_OFFSET ( 8, 0, .BEHIND. ) ;
#636 = CARTESIAN_POINT ( 'NONE',  ( 1.121012091608992289, 0.6409062464593344721, 1.058121847350324440 ) ) ;
#637 = PERSON_AND_ORGANIZATION_ROLE ( 'creator' ) ;
#638 = PERSON ( 'NAUO-PER20', 'UNSPECIFIED', 'UNSPECIFIED', ('UNSPECIFIED'), ('UNSPECIFIED'), ('UNSPECIFIED') ) ;
#639 = DIRECTION ( 'NONE',  ( 1.000000000000000000, 0.000000000000000000, 0.000000000000000000 ) ) ;
#640 = LOCAL_TIME ( 15, 26, 53.00000000000000000, #881 ) ;
#641 = PERSON_AND_ORGANIZATION_ROLE ( 'classification_officer' ) ;
#642 = CC_DESIGN_SECURITY_CLASSIFICATION ( #566, ( #1364 ) ) ;
#643 = CC_DESIGN_DATE_AND_TIME_ASSIGNMENT ( #11, #538, ( #1231 ) ) ;
#644 = APPROVAL_ROLE ( '' ) ;
#645 = ORGANIZATION ( 'NAUO-ORG2', 'UNSPECIFIED', 'UNSPECIFIED' ) ;
#646 = LINE ( 'NONE', #626, #400 ) ;
#647 = CALENDAR_DATE ( 2026, 11, 9 ) ;
#648 = COORDINATED_UNIVERSAL_TIME_OFFSET ( 8, 0, .BEHIND. ) ;
#649 = COORDINATED_UNIVERSAL_TIME_OFFSET ( 8, 0, .BEHIND. ) ;
#650 = EDGE_CURVE ( 'NONE', #574, #1244, #1283, .T. ) ;
#651 = CONTEXT_DEPENDENT_SHAPE_REPRESENTATION ( #147, #72 ) ;
#652 = CC_DESIGN_DATE_AND_TIME_ASSIGNMENT ( #1174, #1278, ( #975 ) ) ;
#653 =( REPRESENTATION_RELATIONSHIP ('NONE','NONE', #416, #344 ) REPRESENTATION_RELATIONSHIP_WITH_TRANSFORMATION ( #913 )SHAPE_REPRESENTATION_RELATIONSHIP( ) );
#654 = APPROVAL_DATE_TIME ( #203, #507 ) ;
#655 = COORDINATED_UNIVERSAL_TIME_OFFSET ( 8, 0, .BEHIND. ) ;
#656 = AXIS2_PLACEMENT_3D ( 'NONE', #397, #969, #448 ) ;
#657 = APPROVAL_STATUS ( 'not_yet_approved' ) ;
#658 = ADVANCED_FACE ( 'NONE', ( #831 ), #1023, .T. ) ;
#659 = COORDINATED_UNIVERSAL_TIME_OFFSET ( 8, 0, .BEHIND. ) ;
#660 = CC_DESIGN_PERSON_AND_ORGANIZATION_ASSIGNMENT ( #326, #97, ( #1055 ) ) ;
#661 = DATE_TIME_ROLE ( 'classification_date' ) ;
#662 = SECURITY_CLASSIFICATION_LEVEL ( 'unclassified' ) ;
#663 = CC_DESIGN_SECURITY_CLASSIFICATION ( #601, ( #1379 ) ) ;
#664 = CARTESIAN_POINT ( 'NONE',  ( 0.1109564667602157551, 2.828687929808904051E-19, -0.002309798981860196072 ) ) ;
#665 = LOCAL_TIME ( 15, 26, 53.00000000000000000, #238 ) ;
#666 = DIRECTION ( 'NONE',  ( -1.224646799147356412E-16, 1.000000000000000000, 1.789277107948263341E-32 ) ) ;
#667 = APPROVAL_PERSON_ORGANIZATION ( #122, #452, #1288 ) ;
#668 = DATE_AND_TIME ( #1302, #77 ) ;
#669 = PRODUCT_DEFINITION_FORMATION_WITH_SPECIFIED_SOURCE ( 'ANY', '', #685, .NOT_KNOWN. ) ;
#670 = PRODUCT_DEFINITION_SHAPE ( 'NONE', 'NONE',  #104 ) ;
#672 = DATE_AND_TIME ( #1207, #534 ) ;
#671 = PERSON ( 'NAUO-PER11', 'UNSPECIFIED', 'UNSPECIFIED', ('UNSPECIFIED'), ('UNSPECIFIED'), ('UNSPECIFIED') ) ;
#673 = CARTESIAN_POINT ( 'NONE',  ( 0.000000000000000000, 0.2500000000000000000, -2.000000000000000000 ) ) ;
#674 = LOCAL_TIME ( 15, 26, 53.00000000000000000, #820 ) ;
#675 = DIRECTION ( 'NONE',  ( -1.224646799147356412E-16, 1.000000000000000000, 1.789277107948263341E-32 ) ) ;
#676 = EDGE_LOOP ( 'NONE', ( #75, #180, #361, #49 ) ) ;
#677 = CC_DESIGN_DATE_AND_TIME_ASSIGNMENT ( #1261, #838, ( #1092 ) ) ;
#678 = CONTEXT_DEPENDENT_SHAPE_REPRESENTATION ( #939, #765 ) ;
#679 = DATE_AND_TIME ( #66, #761 ) ;
#680 = DESIGN_CONTEXT ( 'detailed design', #1005, 'design' ) ;
#681 = CONTEXT_DEPENDENT_SHAPE_REPRESENTATION ( #1154, #31 ) ;
#682 = DIRECTION ( 'NONE',  ( -1.000000000000000000, 0.000000000000000000, 0.000000000000000000 ) ) ;
#683 = DIRECTION ( 'NONE',  ( 0.2803638829204862515, 3.433467318150973489E-17, 0.9598937926425757938 ) ) ;
#684 = ORIENTED_EDGE ( 'NONE', *, *, #1191, .F. ) ;
#685 = PRODUCT ( 'MNbase', 'MNbase', '', ( #310 ) ) ;
#686 = AXIS2_PLACEMENT_3D ( 'NONE', #186, #843, #90 ) ;
#687 = SECURITY_CLASSIFICATION_LEVEL ( 'unclassified' ) ;
#688 = CARTESIAN_POINT ( 'NONE',  ( 0.000000000000000000, 0.000000000000000000, 0.000000000000000000 ) ) ;
#689 = CC_DESIGN_SECURITY_CLASSIFICATION ( #1184, ( #1380 ) ) ;
#690 = COORDINATED_UNIVERSAL_TIME_OFFSET ( 8, 0, .BEHIND. ) ;
#691 = APPROVAL ( #981, 'UNKNOWN' ) ;
#692 = EDGE_CURVE ( 'NONE', #1012, #1132, #744, .T. ) ;
#693 = ORIENTED_EDGE ( 'NONE', *, *, #847, .T. ) ;
#694 = LOCAL_TIME ( 15, 26, 53.00000000000000000, #1025 ) ;
#695 =( REPRESENTATION_RELATIONSHIP ('NONE','NONE', #416, #344 ) REPRESENTATION_RELATIONSHIP_WITH_TRANSFORMATION ( #412 )SHAPE_REPRESENTATION_RELATIONSHIP( ) );
#696 = APPROVAL_STATUS ( 'not_yet_approved' ) ;
#697 = FACE_OUTER_BOUND ( 'NONE', #498, .T. ) ;
#698 = SECURITY_CLASSIFICATION ( '', '', #934 ) ;
#699 = PERSON_AND_ORGANIZATION_ROLE ( 'design_owner' ) ;
#700 = PRODUCT_DEFINITION_SHAPE ( 'NONE', 'NONE',  #842 ) ;
#701 = APPROVAL ( #632, 'UNSPECIFIED' ) ;
#702 = VERTEX_POINT ( 'NONE', #1274 ) ;
#703 = PERSON ( 'NAUO-PER13', 'UNSPECIFIED', 'UNSPECIFIED', ('UNSPECIFIED'), ('UNSPECIFIED'), ('UNSPECIFIED') ) ;
#704 = EDGE_CURVE ( 'NONE', #271, #1108, #553, .T. ) ;
#705 = AXIS2_PLACEMENT_3D ( 'NONE', #233, #351, #898 ) ;
#706 = COORDINATED_UNIVERSAL_TIME_OFFSET ( 8, 0, .BEHIND. ) ;
#707 = APPROVAL_PERSON_ORGANIZATION ( #334, #890, #18 ) ;
#708 = DIRECTION ( 'NONE',  ( -1.224646799147356412E-16, 1.000000000000000000, 1.789277107948263341E-32 ) ) ;
#709 = PERSON_AND_ORGANIZATION_ROLE ( 'design_supplier' ) ;
#710 = AXIS2_PLACEMENT_3D ( 'NONE', #1240, #274, #1250 ) ;
#711 = VERTEX_POINT ( 'NONE', #96 ) ;
#712 = APPROVAL_ROLE ( '' ) ;
#713 = DESIGN_CONTEXT ( 'detailed design', #995, 'design' ) ;
#714 = LOCAL_TIME ( 15, 26, 53.00000000000000000, #243 ) ;
#715 = PRODUCT_DEFINITION_SHAPE ( 'NONE', 'NONE',  #1384 ) ;
#716 = DIRECTION ( 'NONE',  ( 0.2803638829204862515, 3.433467318150973489E-17, 0.9598937926425757938 ) ) ;
#717 = COORDINATED_UNIVERSAL_TIME_OFFSET ( 8, 0, .BEHIND. ) ;
#718 = VERTEX_POINT ( 'NONE', #105 ) ;
#719 = APPROVAL_ROLE ( '' ) ;
#720 = PERSON_AND_ORGANIZATION_ROLE ( 'classification_officer' ) ;
#721 =( NAMED_UNIT ( * ) SI_UNIT ( $, .STERADIAN. ) SOLID_ANGLE_UNIT ( ) );
#722 = DATE_AND_TIME ( #61, #426 ) ;
#723 = CALENDAR_DATE ( 2026, 11, 9 ) ;
#724 = VECTOR ( 'NONE', #870, 100.0000000000000000 ) ;
#725 = DIRECTION ( 'NONE',  ( 1.000000000000000000, 0.000000000000000000, 0.000000000000000000 ) ) ;
#726 = DATE_AND_TIME ( #57, #366 ) ;
#727 = PRODUCT_DEFINITION_SHAPE ( 'NONE', 'NONE',  #1379 ) ;
#728 = CC_DESIGN_PERSON_AND_ORGANIZATION_ASSIGNMENT ( #398, #1167, ( #1184 ) ) ;
#729 = APPROVAL_STATUS ( 'not_yet_approved' ) ;
#730 = DIRECTION ( 'NONE',  ( -1.224646799147356412E-16, 1.000000000000000000, 1.789277107948263341E-32 ) ) ;
#731 =( REPRESENTATION_RELATIONSHIP ('NONE','NONE', #416, #344 ) REPRESENTATION_RELATIONSHIP_WITH_TRANSFORMATION ( #1235 )SHAPE_REPRESENTATION_RELATIONSHIP( ) );
#732 = PERSON_AND_ORGANIZATION_ROLE ( 'creator' ) ;
#733 = CARTESIAN_POINT ( 'NONE',  ( 0.000000000000000000, 0.000000000000000000, -2.000000000000000000 ) ) ;
#734 = COORDINATED_UNIVERSAL_TIME_OFFSET ( 8, 0, .BEHIND. ) ;
#735 = APPROVAL_DATE_TIME ( #532, #1182 ) ;
#736 = PERSON_AND_ORGANIZATION ( #1177, #39 ) ;
#737 = CARTESIAN_POINT ( 'NONE',  ( 0.000000000000000000, 0.000000000000000000, 0.000000000000000000 ) ) ;
#738 = CC_DESIGN_SECURITY_CLASSIFICATION ( #628, ( #1375 ) ) ;
#739 = APPROVAL_PERSON_ORGANIZATION ( #1163, #159, #503 ) ;
#740 = ORGANIZATION ( 'NAUO-ORG23', 'UNSPECIFIED', 'UNSPECIFIED' ) ;
#741 = PERSON_AND_ORGANIZATION ( #671, #834 ) ;
#742 = CARTESIAN_POINT ( 'NONE',  ( 0.3210120916089923004, 0.6409062464593344721, 1.058121847350324440 ) ) ;
#743 = PERSON_AND_ORGANIZATION ( #1177, #39 ) ;
#744 = LINE ( 'NONE', #1066, #778 ) ;
#745 = CC_DESIGN_PERSON_AND_ORGANIZATION_ASSIGNMENT ( #109, #637, ( #1137 ) ) ;
#746 = PERSON ( 'NAUO-PER6', 'UNSPECIFIED', 'UNSPECIFIED', ('UNSPECIFIED'), ('UNSPECIFIED'), ('UNSPECIFIED') ) ;
#747 = LOCAL_TIME ( 15, 26, 53.00000000000000000, #1122 ) ;
#748 = CONTEXT_DEPENDENT_SHAPE_REPRESENTATION ( #695, #249 ) ;
#749 = PERSON_AND_ORGANIZATION ( #1177, #39 ) ;
#750 = CARTESIAN_POINT ( 'NONE',  ( 0.000000000000000000, 0.000000000000000000, 0.000000000000000000 ) ) ;
#751 = CC_DESIGN_SECURITY_CLASSIFICATION ( #99, ( #1370 ) ) ;
#752 = SECURITY_CLASSIFICATION_LEVEL ( 'unclassified' ) ;
#753 = CONTEXT_DEPENDENT_SHAPE_REPRESENTATION ( #430, #1008 ) ;
#754 = CC_DESIGN_SECURITY_CLASSIFICATION ( #385, ( #1365 ) ) ;
#755 = CALENDAR_DATE ( 2026, 11, 9 ) ;
#756 = CC_DESIGN_DATE_AND_TIME_ASSIGNMENT ( #668, #1219, ( #925 ) ) ;
#757 = COORDINATED_UNIVERSAL_TIME_OFFSET ( 8, 0, .BEHIND. ) ;
#758 = ORGANIZATION ( 'NAUO-ORG16', 'UNSPECIFIED', 'UNSPECIFIED' ) ;
#759 = SECURITY_CLASSIFICATION_LEVEL ( 'unclassified' ) ;
#760 = PERSON_AND_ORGANIZATION_ROLE ( 'design_owner' ) ;
#761 = LOCAL_TIME ( 15, 26, 53.00000000000000000, #1157 ) ;
#762 = CC_DESIGN_DATE_AND_TIME_ASSIGNMENT ( #545, #32, ( #13 ) ) ;
#763 = LOCAL_TIME ( 15, 26, 53.00000000000000000, #1252 ) ;
#764 = CC_DESIGN_DATE_AND_TIME_ASSIGNMENT ( #322, #979, ( #420 ) ) ;
#765 = PRODUCT_DEFINITION_SHAPE ( 'NONE', 'NONE',  #1374 ) ;
#766 = VECTOR ( 'NONE', #521, 100.0000000000000000 ) ;
#767 = SECURITY_CLASSIFICATION_LEVEL ( 'unclassified' ) ;
#768 = SHAPE_DEFINITION_REPRESENTATION ( #700, #344 ) ;
#769 = CC_DESIGN_PERSON_AND_ORGANIZATION_ASSIGNMENT ( #1094, #152, ( #878 ) ) ;
#770 = PERSON ( 'NAUO-PER24', 'UNSPECIFIED', 'UNSPECIFIED', ('UNSPECIFIED'), ('UNSPECIFIED'), ('UNSPECIFIED') ) ;
#771 = VECTOR ( 'NONE', #251, 100.0000000000000000 ) ;
#772 = CC_DESIGN_APPROVAL ( #247, ( #975 ) ) ;
#773 = AXIS2_PLACEMENT_3D ( 'NONE', #403, #63, #94 ) ;
#774 = APPROVAL_ROLE ( '' ) ;
#775 = PERSON_AND_ORGANIZATION ( #108, #309 ) ;
#776 = DIRECTION ( 'NONE',  ( 0.000000000000000000, 0.000000000000000000, 1.000000000000000000 ) ) ;
#777 = PERSON_AND_ORGANIZATION ( #959, #779 ) ;
#778 = VECTOR ( 'NONE', #1060, 100.0000000000000000 ) ;
#779 = ORGANIZATION ( 'NAUO-ORG15', 'UNSPECIFIED', 'UNSPECIFIED' ) ;
#780 = COORDINATED_UNIVERSAL_TIME_OFFSET ( 8, 0, .BEHIND. ) ;
#781 = CARTESIAN_POINT ( 'NONE',  ( 0.1109564667602157551, 0.000000000000000000, 0.000000000000000000 ) ) ;
#782 = APPROVAL ( #921, 'UNKNOWN' ) ;
#783 = CARTESIAN_POINT ( 'NONE',  ( 1.121012091608992289, 0.6409062464593344721, 0.2581218473503243405 ) ) ;
#784 = LOCAL_TIME ( 15, 26, 53.00000000000000000, #1276 ) ;
#785 = CONTEXT_DEPENDENT_SHAPE_REPRESENTATION ( #434, #1343 ) ;
#786 = CC_DESIGN_PERSON_AND_ORGANIZATION_ASSIGNMENT ( #508, #492, ( #385 ) ) ;
#787 = PRODUCT_DEFINITION_SHAPE ( 'NONE', 'NONE',  #1364 ) ;
#788 = APPROVAL_STATUS ( 'not_yet_approved' ) ;
#789 = FACE_OUTER_BOUND ( 'NONE', #798, .T. ) ;
#790 = APPLICATION_PROTOCOL_DEFINITION ( 'international standard', 'config_control_design', 1994, #1005 ) ;
#791 = CALENDAR_DATE ( 2026, 11, 9 ) ;
#792 = CC_DESIGN_SECURITY_CLASSIFICATION ( #1349, ( #1369 ) ) ;
#793 = APPROVAL_DATE_TIME ( #356, #624 ) ;
#794 = CARTESIAN_POINT ( 'NONE',  ( 0.000000000000000000, 0.2500000000000000000, -2.000000000000000000 ) ) ;
#795 = ADVANCED_FACE ( 'NONE', ( #215 ), #535, .F. ) ;
#796 = DIRECTION ( 'NONE',  ( 0.2803638829204862515, 3.433467318150973489E-17, 0.9598937926425757938 ) ) ;
#797 =( REPRESENTATION_RELATIONSHIP ('NONE','NONE', #416, #344 ) REPRESENTATION_RELATIONSHIP_WITH_TRANSFORMATION ( #289 )SHAPE_REPRESENTATION_RELATIONSHIP( ) );
#798 = EDGE_LOOP ( 'NONE', ( #265, #1230 ) ) ;
#799 = DATE_TIME_ROLE ( 'classification_date' ) ;
#800 = CC_DESIGN_DATE_AND_TIME_ASSIGNMENT ( #1303, #1086, ( #127 ) ) ;
#801 = DIRECTION ( 'NONE',  ( 0.2803638829204862515, 3.433467318150973489E-17, 0.9598937926425757938 ) ) ;
#802 = CC_DESIGN_PERSON_AND_ORGANIZATION_ASSIGNMENT ( #26, #1222, ( #104 ) ) ;
#803 = ORIENTED_EDGE ( 'NONE', *, *, #1200, .F. ) ;
#804 = ITEM_DEFINED_TRANSFORMATION ( 'NONE', 'NONE', #298,  #833 ) ;
#805 = UNCERTAINTY_MEASURE_WITH_UNIT (LENGTH_MEASURE( 1.000000000000000082E-05 ), #1162, 'distance_accuracy_value', 'NONE');
#806 = APPROVAL_DATE_TIME ( #1129, #864 ) ;
#807 = COORDINATED_UNIVERSAL_TIME_OFFSET ( 8, 0, .BEHIND. ) ;
#808 = CC_DESIGN_APPROVAL ( #1182, ( #1231 ) ) ;
#809 = PRODUCT ( 'MN', 'MN', '', ( #565 ) ) ;
#810 = DIRECTION ( 'NONE',  ( 1.000000000000000000, -0.000000000000000000, 0.000000000000000000 ) ) ;
#811 = ITEM_DEFINED_TRANSFORMATION ( 'NONE', 'NONE', #830,  #833 ) ;
#812 = COORDINATED_UNIVERSAL_TIME_OFFSET ( 8, 0, .BEHIND. ) ;
#813 = APPROVAL_DATE_TIME ( #722, #542 ) ;
#814 = LOCAL_TIME ( 15, 26, 53.00000000000000000, #552 ) ;
#815 = DATE_TIME_ROLE ( 'classification_date' ) ;
#816 = ORIENTED_EDGE ( 'NONE', *, *, #439, .T. ) ;
#817 = ORGANIZATION ( 'NAUO-ORG5', 'UNSPECIFIED', 'UNSPECIFIED' ) ;
#818 = CONTEXT_DEPENDENT_SHAPE_REPRESENTATION ( #731, #1035 ) ;
#819 = DATE_TIME_ROLE ( 'classification_date' ) ;
#820 = COORDINATED_UNIVERSAL_TIME_OFFSET ( 8, 0, .BEHIND. ) ;
#821 = SHAPE_REPRESENTATION_RELATIONSHIP ( 'NONE' , 'NONE' ,  #1119, #418 ) ;
#822 = APPROVAL_ROLE ( '' ) ;
#823 = CC_DESIGN_DATE_AND_TIME_ASSIGNMENT ( #1348, #514, ( #1184 ) ) ;
#824 = VERTEX_POINT ( 'NONE', #287 ) ;
#825 = SECURITY_CLASSIFICATION_LEVEL ( 'unclassified' ) ;
#826 = CALENDAR_DATE ( 2026, 11, 9 ) ;
#827 = APPROVAL_ROLE ( '' ) ;
#828 = CARTESIAN_POINT ( 'NONE',  ( 0.000000000000000000, 0.000000000000000000, 0.000000000000000000 ) ) ;
#829 = DATE_AND_TIME ( #1043, #338 ) ;
#830 = AXIS2_PLACEMENT_3D ( 'NONE', #1209, #582, #478 ) ;
#831 = FACE_OUTER_BOUND ( 'NONE', #1329, .T. ) ;
#832 = DATE_AND_TIME ( #849, #442 ) ;
#833 = AXIS2_PLACEMENT_3D ( 'NONE', #371, #394, #300 ) ;
#834 = ORGANIZATION ( 'NAUO-ORG11', 'UNSPECIFIED', 'UNSPECIFIED' ) ;
#835 = PERSON_AND_ORGANIZATION ( #1177, #39 ) ;
#836 = CC_DESIGN_PERSON_AND_ORGANIZATION_ASSIGNMENT ( #37, #124, ( #925 ) ) ;
#837 = FACE_OUTER_BOUND ( 'NONE', #611, .T. ) ;
#838 = DATE_TIME_ROLE ( 'classification_date' ) ;
#839 = CONTEXT_DEPENDENT_SHAPE_REPRESENTATION ( #477, #596 ) ;
#840 = DIRECTION ( 'NONE',  ( 0.2803638829204862515, 3.433467318150973489E-17, 0.9598937926425757938 ) ) ;
#841 = ITEM_DEFINED_TRANSFORMATION ( 'NONE', 'NONE', #710,  #833 ) ;
#842 = PRODUCT_DEFINITION ( 'UNKNOWN', '', #519, #914 ) ;
#843 = DIRECTION ( 'NONE',  ( 0.000000000000000000, -1.000000000000000000, 0.000000000000000000 ) ) ;
#844 = VECTOR ( 'NONE', #84, 100.0000000000000000 ) ;
#845 = PERSON_AND_ORGANIZATION_ROLE ( 'classification_officer' ) ;
#846 = CC_DESIGN_APPROVAL ( #81, ( #486 ) ) ;
#847 = EDGE_CURVE ( 'NONE', #1108, #271, #1013, .T. ) ;
#848 = LOCAL_TIME ( 15, 26, 53.00000000000000000, #571 ) ;
#849 = CALENDAR_DATE ( 2026, 11, 9 ) ;
#850 = PERSON_AND_ORGANIZATION ( #1269, #1015 ) ;
#851 = DIRECTION ( 'NONE',  ( -1.000000000000000000, -0.000000000000000000, -0.000000000000000000 ) ) ;
#852 = LOCAL_TIME ( 15, 26, 53.00000000000000000, #95 ) ;
#853 = LOCAL_TIME ( 15, 26, 53.00000000000000000, #932 ) ;
#854 = APPROVAL_ROLE ( '' ) ;
#855 = PERSON ( 'NAUO-PER2', 'UNSPECIFIED', 'UNSPECIFIED', ('UNSPECIFIED'), ('UNSPECIFIED'), ('UNSPECIFIED') ) ;
#856 = SECURITY_CLASSIFICATION_LEVEL ( 'unclassified' ) ;
#857 = APPROVAL_PERSON_ORGANIZATION ( #37, #1083, #569 ) ;
#858 = COORDINATED_UNIVERSAL_TIME_OFFSET ( 8, 0, .BEHIND. ) ;
#859 = ITEM_DEFINED_TRANSFORMATION ( 'NONE', 'NONE', #773,  #833 ) ;
#860 = DATE_AND_TIME ( #1195, #396 ) ;
#861 = CALENDAR_DATE ( 2026, 11, 9 ) ;
#862 = LOCAL_TIME ( 15, 26, 53.00000000000000000, #320 ) ;
#863 = LOCAL_TIME ( 15, 26, 53.00000000000000000, #1038 ) ;
#864 = APPROVAL ( #1314, 'UNKNOWN' ) ;
#865 = CALENDAR_DATE ( 2026, 11, 9 ) ;
#866 = APPLICATION_PROTOCOL_DEFINITION ( 'international standard', 'config_control_design', 1994, #1293 ) ;
#867 = AXIS2_PLACEMENT_3D ( 'NONE', #347, #1317, #246 ) ;
#868 = APPROVAL_DATE_TIME ( #444, #691 ) ;
#869 = APPROVAL_DATE_TIME ( #475, #1010 ) ;
#870 = DIRECTION ( 'NONE',  ( -0.000000000000000000, -1.000000000000000000, -0.000000000000000000 ) ) ;
#871 = APPROVAL_PERSON_ORGANIZATION ( #977, #1182, #107 ) ;
#872 = AXIS2_PLACEMENT_3D ( 'NONE', #631, #1058, #708 ) ;
#873 = DATE_AND_TIME ( #865, #529 ) ;
#874 = PERSON ( 'NAUO-PER19', 'UNSPECIFIED', 'UNSPECIFIED', ('UNSPECIFIED'), ('UNSPECIFIED'), ('UNSPECIFIED') ) ;
#875 = DATE_TIME_ROLE ( 'classification_date' ) ;
#876 = CARTESIAN_POINT ( 'NONE',  ( 1.121012091608992289, 0.6409062464593344721, 0.6581218473503243072 ) ) ;
#877 = CC_DESIGN_PERSON_AND_ORGANIZATION_ASSIGNMENT ( #1282, #269, ( #698 ) ) ;
#878 = SECURITY_CLASSIFICATION ( '', '', #687 ) ;
#879 = CC_DESIGN_PERSON_AND_ORGANIZATION_ASSIGNMENT ( #1249, #904, ( #560 ) ) ;
#880 = ORIENTED_EDGE ( 'NONE', *, *, #295, .T. ) ;
#881 = COORDINATED_UNIVERSAL_TIME_OFFSET ( 8, 0, .BEHIND. ) ;
#882 = CONTEXT_DEPENDENT_SHAPE_REPRESENTATION ( #118, #482 ) ;
#883 = DIRECTION ( 'NONE',  ( 0.000000000000000000, 0.000000000000000000, -1.000000000000000000 ) ) ;
#884 = DIRECTION ( 'NONE',  ( -1.224646799147356412E-16, 1.000000000000000000, 1.789277107948263341E-32 ) ) ;
#885 = SECURITY_CLASSIFICATION ( '', '', #390 ) ;
#886 = ITEM_DEFINED_TRANSFORMATION ( 'NONE', 'NONE', #957,  #833 ) ;
#887 = CC_DESIGN_APPROVAL ( #901, ( #669 ) ) ;
#888 = ADVANCED_FACE ( 'NONE', ( #1113 ), #357, .F. ) ;
#889 = CLOSED_SHELL ( 'NONE', ( #204, #658, #1290, #956, #44 ) ) ;
#890 = APPROVAL ( #1000, 'UNKNOWN' ) ;
#891 = CONTEXT_DEPENDENT_SHAPE_REPRESENTATION ( #43, #1211 ) ;
#892 = DIRECTION ( 'NONE',  ( 1.000000000000000000, 0.000000000000000000, -0.000000000000000000 ) ) ;
#893 = APPROVAL_STATUS ( 'not_yet_approved' ) ;
#894 = EDGE_LOOP ( 'NONE', ( #374, #1347, #389 ) ) ;
#895 = DATE_AND_TIME ( #473, #907 ) ;
#896 = AXIS2_PLACEMENT_3D ( 'NONE', #1031, #1170, #308 ) ;
#897 = SECURITY_CLASSIFICATION_LEVEL ( 'unclassified' ) ;
#898 = DIRECTION ( 'NONE',  ( 0.000000000000000000, -0.000000000000000000, -1.000000000000000000 ) ) ;
#899 = CC_DESIGN_DATE_AND_TIME_ASSIGNMENT ( #83, #1051, ( #104 ) ) ;
#900 = DIRECTION ( 'NONE',  ( -1.224646799147356412E-16, 1.000000000000000000, 1.789277107948263341E-32 ) ) ;
#901 = APPROVAL ( #120, 'UNSPECIFIED' ) ;
#902 = VERTEX_POINT ( 'NONE', #673 ) ;
#903 = DATE_AND_TIME ( #1016, #176 ) ;
#904 = PERSON_AND_ORGANIZATION_ROLE ( 'classification_officer' ) ;
#905 = CARTESIAN_POINT ( 'NONE',  ( 0.3210120916089923004, 0.6409062464593344721, 1.858121847350324263 ) ) ;
#906 = AXIS2_PLACEMENT_3D ( 'NONE', #737, #1178, #106 ) ;
#907 = LOCAL_TIME ( 15, 26, 53.00000000000000000, #1021 ) ;
#908 = APPROVAL_ROLE ( '' ) ;
#909 = CC_DESIGN_SECURITY_CLASSIFICATION ( #127, ( #1363 ) ) ;
#910 = CC_DESIGN_APPROVAL ( #29, ( #1055 ) ) ;
#911 = CARTESIAN_POINT ( 'NONE',  ( 0.000000000000000000, 0.2500000000000000000, 0.000000000000000000 ) ) ;
#912 = CALENDAR_DATE ( 2026, 11, 9 ) ;
#913 = ITEM_DEFINED_TRANSFORMATION ( 'NONE', 'NONE', #121,  #833 ) ;
#914 = DESIGN_CONTEXT ( 'detailed design', #549, 'design' ) ;
#915 = CONTEXT_DEPENDENT_SHAPE_REPRESENTATION ( #286, #568 ) ;
#916 = CARTESIAN_POINT ( 'NONE',  ( -0.07898790839100770789, 0.6409062464593344721, 1.858121847350324263 ) ) ;
#917 = APPROVAL_PERSON_ORGANIZATION ( #331, #1198, #955 ) ;
#918 = PERSON_AND_ORGANIZATION_ROLE ( 'creator' ) ;
#919 = CC_DESIGN_APPROVAL ( #542, ( #206 ) ) ;
#920 = ORIENTED_EDGE ( 'NONE', *, *, #148, .F. ) ;
#921 = APPROVAL_STATUS ( 'not_yet_approved' ) ;
#922 = APPROVAL_DATE_TIME ( #605, #81 ) ;
#923 = PERSON ( 'NAUO-PER7', 'UNSPECIFIED', 'UNSPECIFIED', ('UNSPECIFIED'), ('UNSPECIFIED'), ('UNSPECIFIED') ) ;
#924 = DATE_AND_TIME ( #621, #853 ) ;
#925 = SECURITY_CLASSIFICATION ( '', '', #27 ) ;
#926 = DIRECTION ( 'NONE',  ( 0.2803638829204862515, 3.433467318150973489E-17, 0.9598937926425757938 ) ) ;
#927 = CC_DESIGN_DATE_AND_TIME_ASSIGNMENT ( #903, #1046, ( #601 ) ) ;
#928 = APPROVAL_STATUS ( 'not_yet_approved' ) ;
#929 = VERTEX_POINT ( 'NONE', #559 ) ;
#930 = CONTEXT_DEPENDENT_SHAPE_REPRESENTATION ( #575, #1356 ) ;
#931 = PRODUCT_DEFINITION_SHAPE ( 'NONE', 'NONE',  #1377 ) ;
#932 = COORDINATED_UNIVERSAL_TIME_OFFSET ( 8, 0, .BEHIND. ) ;
#933 = DIRECTION ( 'NONE',  ( -1.224646799147356412E-16, 1.000000000000000000, 1.789277107948263341E-32 ) ) ;
#934 = SECURITY_CLASSIFICATION_LEVEL ( 'unclassified' ) ;
#935 = APPLICATION_CONTEXT ( 'configuration controlled 3d designs of mechanical parts and assemblies' ) ;
#936 = LOCAL_TIME ( 15, 26, 53.00000000000000000, #168 ) ;
#937 = DIRECTION ( 'NONE',  ( -0.000000000000000000, -0.000000000000000000, 1.000000000000000000 ) ) ;
#938 = APPROVAL_ROLE ( '' ) ;
#939 =( REPRESENTATION_RELATIONSHIP ('NONE','NONE', #416, #344 ) REPRESENTATION_RELATIONSHIP_WITH_TRANSFORMATION ( #151 )SHAPE_REPRESENTATION_RELATIONSHIP( ) );
#940 = CC_DESIGN_DATE_AND_TIME_ASSIGNMENT ( #1169, #544, ( #99 ) ) ;
#941 = LOCAL_TIME ( 15, 26, 53.00000000000000000, #807 ) ;
#942 = EDGE_CURVE ( 'NONE', #929, #1244, #1095, .T. ) ;
#943 = CONTEXT_DEPENDENT_SHAPE_REPRESENTATION ( #254, #352 ) ;
#944 = DIRECTION ( 'NONE',  ( -1.224646799147356412E-16, 1.000000000000000000, 1.789277107948263341E-32 ) ) ;
#945 = PERSON_AND_ORGANIZATION ( #1177, #39 ) ;
#946 = LOCAL_TIME ( 15, 26, 53.00000000000000000, #1323 ) ;
#947 = VECTOR ( 'NONE', #1045, 100.0000000000000000 ) ;
#948 = DIRECTION ( 'NONE',  ( 0.000000000000000000, 0.000000000000000000, -1.000000000000000000 ) ) ;
#949 = DATE_TIME_ROLE ( 'classification_date' ) ;
#950 = SECURITY_CLASSIFICATION_LEVEL ( 'unclassified' ) ;
#951 = CC_DESIGN_PERSON_AND_ORGANIZATION_ASSIGNMENT ( #749, #760, ( #685 ) ) ;
#952 = CARTESIAN_POINT ( 'NONE',  ( -0.4789879083910076885, 0.6409062464593344721, 0.6581218473503243072 ) ) ;
#953 = VECTOR ( 'NONE', #46, 100.0000000000000000 ) ;
#954 = SECURITY_CLASSIFICATION ( '', '', #231 ) ;
#955 = APPROVAL_ROLE ( '' ) ;
#956 = ADVANCED_FACE ( 'NONE', ( #697 ), #268, .T. ) ;
#957 = AXIS2_PLACEMENT_3D ( 'NONE', #742, #342, #1062 ) ;
#958 = CARTESIAN_POINT ( 'NONE',  ( 0.000000000000000000, 0.000000000000000000, 0.000000000000000000 ) ) ;
#959 = PERSON ( 'NAUO-PER15', 'UNSPECIFIED', 'UNSPECIFIED', ('UNSPECIFIED'), ('UNSPECIFIED'), ('UNSPECIFIED') ) ;
#960 = CC_DESIGN_PERSON_AND_ORGANIZATION_ASSIGNMENT ( #122, #964, ( #420 ) ) ;
#961 = COORDINATED_UNIVERSAL_TIME_OFFSET ( 8, 0, .BEHIND. ) ;
#962 = PERSON_AND_ORGANIZATION_ROLE ( 'design_supplier' ) ;
#963 = LINE ( 'NONE', #1151, #947 ) ;
#964 = PERSON_AND_ORGANIZATION_ROLE ( 'classification_officer' ) ;
#965 = LOCAL_TIME ( 15, 26, 53.00000000000000000, #384 ) ;
#966 = ORGANIZATION ( 'NAUO-ORG26', 'UNSPECIFIED', 'UNSPECIFIED' ) ;
#967 = DATE_AND_TIME ( #93, #7 ) ;
#968 = PERSON_AND_ORGANIZATION ( #1177, #39 ) ;
#969 = DIRECTION ( 'NONE',  ( 0.000000000000000000, 0.000000000000000000, -1.000000000000000000 ) ) ;
#970 = ITEM_DEFINED_TRANSFORMATION ( 'NONE', 'NONE', #330,  #833 ) ;
#971 = CIRCLE ( 'NONE', #906, 0.04555000000000002103 ) ;
#972 = SECURITY_CLASSIFICATION_LEVEL ( 'unclassified' ) ;
#973 = DATE_AND_TIME ( #1075, #253 ) ;
#974 = APPROVAL ( #1020, 'UNKNOWN' ) ;
#975 = SECURITY_CLASSIFICATION ( '', '', #972 ) ;
#976 = APPROVAL_STATUS ( 'not_yet_approved' ) ;
#977 = PERSON_AND_ORGANIZATION ( #421, #211 ) ;
#978 = CALENDAR_DATE ( 2026, 11, 9 ) ;
#979 = DATE_TIME_ROLE ( 'classification_date' ) ;
#980 = ORGANIZATION ( 'NAUO-ORG19', 'UNSPECIFIED', 'UNSPECIFIED' ) ;
#981 = APPROVAL_STATUS ( 'not_yet_approved' ) ;
#982 = CC_DESIGN_SECURITY_CLASSIFICATION ( #1092, ( #1381 ) ) ;
#983 = CONTEXT_DEPENDENT_SHAPE_REPRESENTATION ( #193, #997 ) ;
#984 = LOCAL_TIME ( 15, 26, 53.00000000000000000, #79 ) ;
#985 = APPROVAL_STATUS ( 'not_yet_approved' ) ;
#986 = CC_DESIGN_DATE_AND_TIME_ASSIGNMENT ( #679, #55, ( #842 ) ) ;
#987 = ITEM_DEFINED_TRANSFORMATION ( 'NONE', 'NONE', #50,  #833 ) ;
#988 = LINE ( 'NONE', #1322, #1063 ) ;
#989 = APPROVAL_DATE_TIME ( #1124, #1160 ) ;
#990 = PERSON ( 'NAUO-PER8', 'UNSPECIFIED', 'UNSPECIFIED', ('UNSPECIFIED'), ('UNSPECIFIED'), ('UNSPECIFIED') ) ;
#991 = LOCAL_TIME ( 15, 26, 53.00000000000000000, #306 ) ;
#992 = DATE_TIME_ROLE ( 'classification_date' ) ;
#993 = SECURITY_CLASSIFICATION_LEVEL ( 'unclassified' ) ;
#994 = LINE ( 'NONE', #1202, #953 ) ;
#995 = APPLICATION_CONTEXT ( 'configuration controlled 3d designs of mechanical parts and assemblies' ) ;
#996 = PERSON_AND_ORGANIZATION ( #1177, #39 ) ;
#997 = PRODUCT_DEFINITION_SHAPE ( 'NONE', 'NONE',  #1363 ) ;
#998 = EDGE_CURVE ( 'NONE', #487, #711, #988, .T. ) ;
#999 = CC_DESIGN_PERSON_AND_ORGANIZATION_ASSIGNMENT ( #78, #506, ( #628 ) ) ;
#1000 = APPROVAL_STATUS ( 'not_yet_approved' ) ;
#1001 = ORGANIZATION ( 'NAUO-ORG20', 'UNSPECIFIED', 'UNSPECIFIED' ) ;
#1002 = PERSON_AND_ORGANIZATION ( #609, #313 ) ;
#1003 = FACE_OUTER_BOUND ( 'NONE', #1103, .T. ) ;
#1004 = DIRECTION ( 'NONE',  ( -1.224646799147356412E-16, 1.000000000000000000, 1.789277107948263341E-32 ) ) ;
#1005 = APPLICATION_CONTEXT ( 'configuration controlled 3d designs of mechanical parts and assemblies' ) ;
#1006 = DIRECTION ( 'NONE',  ( -1.000000000000000000, -0.000000000000000000, -0.000000000000000000 ) ) ;
#1007 = CONICAL_SURFACE ( 'NONE', #1193, 41.40909090909092072, 0.3925943860341560843 ) ;
#1008 = PRODUCT_DEFINITION_SHAPE ( 'NONE', 'NONE',  #1371 ) ;
#1009 = CARTESIAN_POINT ( 'NONE',  ( 0.000000000000000000, -2.789133085058097148E-18, 0.04555000000000002103 ) ) ;
#1010 = APPROVAL ( #788, 'UNKNOWN' ) ;
#1011 = DIRECTION ( 'NONE',  ( 0.000000000000000000, 0.000000000000000000, 1.000000000000000000 ) ) ;
#1012 = VERTEX_POINT ( 'NONE', #346 ) ;
#1013 = CIRCLE ( 'NONE', #587, 0.04825586317211318088 ) ;
#1014 = CC_DESIGN_DATE_AND_TIME_ASSIGNMENT ( #672, #875, ( #1133 ) ) ;
#1015 = ORGANIZATION ( 'NAUO-ORG12', 'UNSPECIFIED', 'UNSPECIFIED' ) ;
#1016 = CALENDAR_DATE ( 2026, 11, 9 ) ;
#1017 = AXIS2_PLACEMENT_3D ( 'NONE', #905, #517, #198 ) ;
#1018 = APPROVAL_ROLE ( '' ) ;
#1019 = ORIENTED_EDGE ( 'NONE', *, *, #704, .T. ) ;
#1020 = APPROVAL_STATUS ( 'not_yet_approved' ) ;
#1021 = COORDINATED_UNIVERSAL_TIME_OFFSET ( 8, 0, .BEHIND. ) ;
#1022 = DATE_TIME_ROLE ( 'classification_date' ) ;
#1023 = CONICAL_SURFACE ( 'NONE', #1164, 0.002309798981860196072, 0.3925943860341560843 ) ;
#1024 = ORGANIZATION ( 'NAUO-ORG18', 'UNSPECIFIED', 'UNSPECIFIED' ) ;
#1025 = COORDINATED_UNIVERSAL_TIME_OFFSET ( 8, 0, .BEHIND. ) ;
#1026 = CC_DESIGN_APPROVAL ( #410, ( #1297 ) ) ;
#1027 = ORIENTED_EDGE ( 'NONE', *, *, #341, .F. ) ;
#1028 = CC_DESIGN_DATE_AND_TIME_ASSIGNMENT ( #490, #392, ( #486 ) ) ;
#1029 = CALENDAR_DATE ( 2026, 11, 9 ) ;
#1030 = COORDINATED_UNIVERSAL_TIME_OFFSET ( 8, 0, .BEHIND. ) ;
#1031 = CARTESIAN_POINT ( 'NONE',  ( -0.07898790839100770789, 0.6409062464593344721, 1.058121847350324440 ) ) ;
#1032 = LOCAL_TIME ( 15, 26, 53.00000000000000000, #655 ) ;
#1033 = PERSON_AND_ORGANIZATION ( #1177, #39 ) ;
#1034 = CC_DESIGN_APPROVAL ( #383, ( #385 ) ) ;
#1035 = PRODUCT_DEFINITION_SHAPE ( 'NONE', 'NONE',  #1380 ) ;
#1036 = CC_DESIGN_DATE_AND_TIME_ASSIGNMENT ( #924, #402, ( #385 ) ) ;
#1037 = ORIENTED_EDGE ( 'NONE', *, *, #998, .F. ) ;
#1038 = COORDINATED_UNIVERSAL_TIME_OFFSET ( 8, 0, .BEHIND. ) ;
#1039 = PERSON_AND_ORGANIZATION_ROLE ( 'classification_officer' ) ;
#1040 = CALENDAR_DATE ( 2026, 11, 9 ) ;
#1041 = LOCAL_TIME ( 15, 26, 53.00000000000000000, #648 ) ;
#1042 = DIRECTION ( 'NONE',  ( -1.224646799147356412E-16, 1.000000000000000000, 1.789277107948263341E-32 ) ) ;
#1043 = CALENDAR_DATE ( 2026, 11, 9 ) ;
#1044 = MANIFOLD_SOLID_BREP ( 'Boss-Extrude2', #117 ) ;
#1045 = DIRECTION ( 'NONE',  ( -1.000000000000000000, -0.000000000000000000, -0.000000000000000000 ) ) ;
#1046 = DATE_TIME_ROLE ( 'classification_date' ) ;
#1047 = ADVANCED_FACE ( 'NONE', ( #1221 ), #38, .F. ) ;
#1048 = CONTEXT_DEPENDENT_SHAPE_REPRESENTATION ( #220, #931 ) ;
#1049 = DATE_TIME_ROLE ( 'classification_date' ) ;
#1050 = LOCAL_TIME ( 15, 26, 53.00000000000000000, #1065 ) ;
#1051 = DATE_TIME_ROLE ( 'creation_date' ) ;
#1052 = LOCAL_TIME ( 15, 26, 53.00000000000000000, #812 ) ;
#1053 = CARTESIAN_POINT ( 'NONE',  ( 0.000000000000000000, 0.000000000000000000, 0.04825586317211318782 ) ) ;
#1054 = ITEM_DEFINED_TRANSFORMATION ( 'NONE', 'NONE', #92,  #833 ) ;
#1055 = SECURITY_CLASSIFICATION ( '', '', #174 ) ;
#1056 = CALENDAR_DATE ( 2026, 11, 9 ) ;
#1057 = EDGE_CURVE ( 'NONE', #824, #256, #580, .T. ) ;
#1058 = DIRECTION ( 'NONE',  ( 0.2803638829204862515, 3.433467318150973489E-17, 0.9598937926425757938 ) ) ;
#1059 = DATE_AND_TIME ( #219, #1050 ) ;
#1060 = DIRECTION ( 'NONE',  ( -0.9239195927440781997, 0.000000000000000000, 0.3825867040862979684 ) ) ;
#1061 = APPROVAL_STATUS ( 'not_yet_approved' ) ;
#1062 = DIRECTION ( 'NONE',  ( -1.224646799147356412E-16, 1.000000000000000000, 1.789277107948263341E-32 ) ) ;
#1063 = VECTOR ( 'NONE', #572, 100.0000000000000000 ) ;
#1064 = CC_DESIGN_APPROVAL ( #1327, ( #1349 ) ) ;
#1065 = COORDINATED_UNIVERSAL_TIME_OFFSET ( 8, 0, .BEHIND. ) ;
#1066 = CARTESIAN_POINT ( 'NONE',  ( 0.1100000000000000006, 0.000000000000000000, 0.000000000000000000 ) ) ;
#1067 = CALENDAR_DATE ( 2026, 11, 9 ) ;
#1068 = APPROVAL_PERSON_ORGANIZATION ( #1002, #14, #131 ) ;
#1069 = APPLICATION_PROTOCOL_DEFINITION ( 'international standard', 'config_control_design', 1994, #995 ) ;
#1070 = LINE ( 'NONE', #958, #1319 ) ;
#1071 = DATE_AND_TIME ( #647, #1111 ) ;
#1072 = CC_DESIGN_DATE_AND_TIME_ASSIGNMENT ( #1144, #799, ( #1205 ) ) ;
#1073 = CC_DESIGN_SECURITY_CLASSIFICATION ( #1297, ( #1385 ) ) ;
#1074 = APPROVAL_STATUS ( 'not_yet_approved' ) ;
#1075 = CALENDAR_DATE ( 2026, 11, 9 ) ;
#1076 = LOCAL_TIME ( 15, 26, 53.00000000000000000, #690 ) ;
#1077 = ITEM_DEFINED_TRANSFORMATION ( 'NONE', 'NONE', #867,  #833 ) ;
#1078 = VECTOR ( 'NONE', #937, 100.0000000000000000 ) ;
#1079 = CONTEXT_DEPENDENT_SHAPE_REPRESENTATION ( #353, #41 ) ;
#1080 = DATE_TIME_ROLE ( 'creation_date' ) ;
#1081 = VECTOR ( 'NONE', #138, 100.0000000000000000 ) ;
#1082 = DATE_AND_TIME ( #861, #129 ) ;
#1083 = APPROVAL ( #985, 'UNKNOWN' ) ;
#1084 = PERSON ( 'NAUO-PER23', 'UNSPECIFIED', 'UNSPECIFIED', ('UNSPECIFIED'), ('UNSPECIFIED'), ('UNSPECIFIED') ) ;
#1085 = COORDINATED_UNIVERSAL_TIME_OFFSET ( 8, 0, .BEHIND. ) ;
#1086 = DATE_TIME_ROLE ( 'classification_date' ) ;
#1087 = VECTOR ( 'NONE', #111, 100.0000000000000000 ) ;
#1088 = CC_DESIGN_PERSON_AND_ORGANIZATION_ASSIGNMENT ( #518, #301, ( #10 ) ) ;
#1089 = APPROVAL_PERSON_ORGANIZATION ( #777, #332, #242 ) ;
#1090 = APPROVAL_DATE_TIME ( #873, #332 ) ;
#1091 = CC_DESIGN_APPROVAL ( #362, ( #878 ) ) ;
#1092 = SECURITY_CLASSIFICATION ( '', '', #825 ) ;
#1093 = EDGE_CURVE ( 'NONE', #718, #271, #161, .T. ) ;
#1094 = PERSON_AND_ORGANIZATION ( #30, #1333 ) ;
#1095 = LINE ( 'NONE', #464, #1081 ) ;
#1096 =( NAMED_UNIT ( * ) PLANE_ANGLE_UNIT ( ) SI_UNIT ( $, .RADIAN. ) );
#1097 = LOCAL_TIME ( 15, 26, 53.00000000000000000, #12 ) ;
#1098 = CC_DESIGN_APPROVAL ( #494, ( #842 ) ) ;
#1099 = CALENDAR_DATE ( 2026, 11, 9 ) ;
#1100 =( NAMED_UNIT ( * ) SI_UNIT ( $, .STERADIAN. ) SOLID_ANGLE_UNIT ( ) );
#1101 =( NAMED_UNIT ( * ) SI_UNIT ( $, .STERADIAN. ) SOLID_ANGLE_UNIT ( ) );
#1102 = LOCAL_TIME ( 15, 26, 53.00000000000000000, #299 ) ;
#1103 = EDGE_LOOP ( 'NONE', ( #505, #816, #172, #56 ) ) ;
#1104 = ITEM_DEFINED_TRANSFORMATION ( 'NONE', 'NONE', #102,  #833 ) ;
#1105 = DATE_AND_TIME ( #125, #665 ) ;
#1106 = CARTESIAN_POINT ( 'NONE',  ( 0.000000000000000000, 5.909638837382105990E-18, -0.04825586317211318782 ) ) ;
#1107 = CARTESIAN_POINT ( 'NONE',  ( 0.3210120916089923004, 0.6409062464593344721, 0.2581218473503243405 ) ) ;
#1108 = VERTEX_POINT ( 'NONE', #1106 ) ;
#1109 = CC_DESIGN_APPROVAL ( #14, ( #13 ) ) ;
#1110 = ITEM_DEFINED_TRANSFORMATION ( 'NONE', 'NONE', #896,  #833 ) ;
#1111 = LOCAL_TIME ( 15, 26, 53.00000000000000000, #368 ) ;
#1112 = CALENDAR_DATE ( 2026, 11, 9 ) ;
#1113 = FACE_OUTER_BOUND ( 'NONE', #676, .T. ) ;
#1114 = CC_DESIGN_SECURITY_CLASSIFICATION ( #420, ( #1384 ) ) ;
#1115 = APPROVAL_ROLE ( '' ) ;
#1116 = CC_DESIGN_PERSON_AND_ORGANIZATION_ASSIGNMENT ( #775, #1220, ( #127 ) ) ;
#1117 = LOCAL_TIME ( 15, 26, 53.00000000000000000, #285 ) ;
#1118 = ORIENTED_EDGE ( 'NONE', *, *, #599, .T. ) ;
#1119 = SHAPE_REPRESENTATION ( 'MNbase', ( #833 ), #47 ) ;
#1120 = SECURITY_CLASSIFICATION_LEVEL ( 'unclassified' ) ;
#1121 =( GEOMETRIC_REPRESENTATION_CONTEXT ( 3 ) GLOBAL_UNCERTAINTY_ASSIGNED_CONTEXT ( ( #60 ) ) GLOBAL_UNIT_ASSIGNED_CONTEXT ( ( #146, #1096, #1101 ) ) REPRESENTATION_CONTEXT ( 'NONE', 'WORKASPACE' ) );
#1122 = COORDINATED_UNIVERSAL_TIME_OFFSET ( 8, 0, .BEHIND. ) ;
#1123 =( LENGTH_UNIT ( ) NAMED_UNIT ( * ) SI_UNIT ( .CENTI., .METRE. ) );
#1124 = DATE_AND_TIME ( #359, #946 ) ;
#1125 = CARTESIAN_POINT ( 'NONE',  ( -99.89000000000000057, 0.000000000000000000, 0.000000000000000000 ) ) ;
#1126 = LOCAL_TIME ( 15, 26, 53.00000000000000000, #349 ) ;
#1127 = SECURITY_CLASSIFICATION_LEVEL ( 'unclassified' ) ;
#1128 = AXIS2_PLACEMENT_3D ( 'NONE', #1146, #292, #730 ) ;
#1129 = DATE_AND_TIME ( #1040, #28 ) ;
#1130 = CARTESIAN_POINT ( 'NONE',  ( -0.07898790839100770789, 0.6409062464593344721, 1.458121847350324352 ) ) ;
#1131 = SECURITY_CLASSIFICATION_LEVEL ( 'unclassified' ) ;
#1132 = VERTEX_POINT ( 'NONE', #1009 ) ;
#1133 = SECURITY_CLASSIFICATION ( '', '', #897 ) ;
#1134 = DATE_AND_TIME ( #618, #1359 ) ;
#1135 = PRODUCT_DEFINITION_SHAPE ( 'NONE', 'NONE',  #1373 ) ;
#1136 = DATE_AND_TIME ( #1341, #16 ) ;
#1137 = PRODUCT_DEFINITION ( 'UNKNOWN', '', #669, #713 ) ;
#1138 = DIRECTION ( 'NONE',  ( 0.2803638829204862515, 3.433467318150973489E-17, 0.9598937926425757938 ) ) ;
#1139 = APPROVAL_PERSON_ORGANIZATION ( #175, #81, #712 ) ;
#1140 = DATE_AND_TIME ( #89, #694 ) ;
#1141 = ORGANIZATION ( 'NAUO-ORG22', 'UNSPECIFIED', 'UNSPECIFIED' ) ;
#1142 = ORIENTED_EDGE ( 'NONE', *, *, #110, .F. ) ;
#1143 = PERSON_AND_ORGANIZATION ( #257, #1141 ) ;
#1144 = DATE_AND_TIME ( #58, #1052 ) ;
#1145 = DATE_TIME_ROLE ( 'classification_date' ) ;
#1146 = CARTESIAN_POINT ( 'NONE',  ( 0.3210120916089923004, 0.6409062464593344721, 1.458121847350324352 ) ) ;
#1147 = CALENDAR_DATE ( 2026, 11, 9 ) ;
#1148 = PRODUCT_DEFINITION_SHAPE ( 'NONE', 'NONE',  #1385 ) ;
#1149 = EDGE_CURVE ( 'NONE', #1012, #702, #994, .T. ) ;
#1150 = CC_DESIGN_PERSON_AND_ORGANIZATION_ASSIGNMENT ( #850, #641, ( #975 ) ) ;
#1151 = CARTESIAN_POINT ( 'NONE',  ( 0.000000000000000000, 0.2500000000000000000, -2.000000000000000000 ) ) ;
#1152 = APPROVAL_DATE_TIME ( #726, #974 ) ;
#1153 = APPROVAL_DATE_TIME ( #158, #1316 ) ;
#1154 =( REPRESENTATION_RELATIONSHIP ('NONE','NONE', #416, #1119 ) REPRESENTATION_RELATIONSHIP_WITH_TRANSFORMATION ( #841 )SHAPE_REPRESENTATION_RELATIONSHIP( ) );
#1155 = CALENDAR_DATE ( 2026, 11, 9 ) ;
#1156 = DIRECTION ( 'NONE',  ( 0.000000000000000000, 0.000000000000000000, 1.000000000000000000 ) ) ;
#1157 = COORDINATED_UNIVERSAL_TIME_OFFSET ( 8, 0, .BEHIND. ) ;
#1158 = CARTESIAN_POINT ( 'NONE',  ( 0.000000000000000000, 0.000000000000000000, 0.000000000000000000 ) ) ;
#1159 = CALENDAR_DATE ( 2026, 11, 9 ) ;
#1160 = APPROVAL ( #893, 'UNSPECIFIED' ) ;
#1161 = CC_DESIGN_PERSON_AND_ORGANIZATION_ASSIGNMENT ( #743, #962, ( #669 ) ) ;
#1162 =( LENGTH_UNIT ( ) NAMED_UNIT ( * ) SI_UNIT ( .CENTI., .METRE. ) );
#1163 = PERSON_AND_ORGANIZATION ( #1177, #39 ) ;
#1164 = AXIS2_PLACEMENT_3D ( 'NONE', #513, #209, #541 ) ;
#1165 = ORGANIZATION ( 'NAUO-ORG21', 'UNSPECIFIED', 'UNSPECIFIED' ) ;
#1166 = LINE ( 'NONE', #422, #1087 ) ;
#1167 = PERSON_AND_ORGANIZATION_ROLE ( 'classification_officer' ) ;
#1168 = APPROVAL_PERSON_ORGANIZATION ( #523, #782, #1340 ) ;
#1169 = DATE_AND_TIME ( #425, #1041 ) ;
#1170 = DIRECTION ( 'NONE',  ( 0.2803638829204862515, 3.433467318150973489E-17, 0.9598937926425757938 ) ) ;
#1171 = PERSON_AND_ORGANIZATION ( #1177, #39 ) ;
#1172 = ORGANIZATION ( 'NAUO-ORG7', 'UNSPECIFIED', 'UNSPECIFIED' ) ;
#1173 = CARTESIAN_POINT ( 'NONE',  ( 0.000000000000000000, 0.000000000000000000, 0.000000000000000000 ) ) ;
#1174 = DATE_AND_TIME ( #5, #228 ) ;
#1175 = APPROVAL_PERSON_ORGANIZATION ( #850, #247, #417 ) ;
#1176 = PERSON_AND_ORGANIZATION ( #1177, #39 ) ;
#1177 = PERSON ( 'UNSPECIFIED', 'UNSPECIFIED', 'UNSPECIFIED', ('UNSPECIFIED'), ('UNSPECIFIED'), ('UNSPECIFIED') ) ;
#1178 = DIRECTION ( 'NONE',  ( 1.000000000000000000, 0.000000000000000000, 0.000000000000000000 ) ) ;
#1179 = APPROVAL ( #1237, 'UNKNOWN' ) ;
#1180 = APPROVAL_PERSON_ORGANIZATION ( #160, #864, #1358 ) ;
#1181 = COORDINATED_UNIVERSAL_TIME_OFFSET ( 8, 0, .BEHIND. ) ;
#1182 = APPROVAL ( #1074, 'UNKNOWN' ) ;
#1183 = DATE_TIME_ROLE ( 'classification_date' ) ;
#1184 = SECURITY_CLASSIFICATION ( '', '', #76 ) ;
#1185 = CALENDAR_DATE ( 2026, 11, 9 ) ;
#1186 = COORDINATED_UNIVERSAL_TIME_OFFSET ( 8, 0, .BEHIND. ) ;
#1187 = CC_DESIGN_APPROVAL ( #701, ( #698 ) ) ;
#1188 = APPROVAL_DATE_TIME ( #427, #101 ) ;
#1189 = CC_DESIGN_DATE_AND_TIME_ASSIGNMENT ( #967, #432, ( #1349 ) ) ;
#1190 = APPROVAL_PERSON_ORGANIZATION ( #1204, #1160, #1115 ) ;
#1191 = EDGE_CURVE ( 'NONE', #702, #1132, #474, .T. ) ;
#1192 = CALENDAR_DATE ( 2026, 11, 9 ) ;
#1193 = AXIS2_PLACEMENT_3D ( 'NONE', #415, #851, #589 ) ;
#1194 = CALENDAR_DATE ( 2026, 11, 9 ) ;
#1195 = CALENDAR_DATE ( 2026, 11, 9 ) ;
#1196 = VECTOR ( 'NONE', #337, 100.0000000000000000 ) ;
#1197 = ORGANIZATION ( 'NAUO-ORG14', 'UNSPECIFIED', 'UNSPECIFIED' ) ;
#1198 = APPROVAL ( #1299, 'UNSPECIFIED' ) ;
#1199 = AXIS2_PLACEMENT_3D ( 'NONE', #191, #1345, #378 ) ;
#1200 = EDGE_CURVE ( 'NONE', #718, #1108, #484, .T. ) ;
#1201 = DATE_AND_TIME ( #791, #640 ) ;
#1202 = CARTESIAN_POINT ( 'NONE',  ( 0.1100000000000000006, 0.000000000000000000, 0.000000000000000000 ) ) ;
#1203 = PERSON ( 'NAUO-PER14', 'UNSPECIFIED', 'UNSPECIFIED', ('UNSPECIFIED'), ('UNSPECIFIED'), ('UNSPECIFIED') ) ;
#1204 = PERSON_AND_ORGANIZATION ( #1177, #39 ) ;
#1205 = SECURITY_CLASSIFICATION ( '', '', #281 ) ;
#1206 = CC_DESIGN_APPROVAL ( #570, ( #1092 ) ) ;
#1207 = CALENDAR_DATE ( 2026, 11, 9 ) ;
#1208 = PLANE ( 'NONE',  #98 ) ;
#1209 = CARTESIAN_POINT ( 'NONE',  ( -0.07898790839100770789, 0.6409062464593344721, 0.2581218473503243405 ) ) ;
#1210 = ORIENTED_EDGE ( 'NONE', *, *, #599, .F. ) ;
#1211 = PRODUCT_DEFINITION_SHAPE ( 'NONE', 'NONE',  #1361 ) ;
#1212 = APPROVAL_PERSON_ORGANIZATION ( #1249, #35, #483 ) ;
#1213 = COORDINATED_UNIVERSAL_TIME_OFFSET ( 8, 0, .BEHIND. ) ;
#1214 = DATE_AND_TIME ( #1112, #62 ) ;
#1215 = DIRECTION ( 'NONE',  ( 0.000000000000000000, 0.000000000000000000, -1.000000000000000000 ) ) ;
#1216 = DIRECTION ( 'NONE',  ( 0.2803638829204862515, 3.433467318150973489E-17, 0.9598937926425757938 ) ) ;
#1217 = LOCAL_TIME ( 15, 26, 53.00000000000000000, #659 ) ;
#1218 = APPROVAL ( #586, 'UNKNOWN' ) ;
#1219 = DATE_TIME_ROLE ( 'classification_date' ) ;
#1220 = PERSON_AND_ORGANIZATION_ROLE ( 'classification_officer' ) ;
#1221 = FACE_OUTER_BOUND ( 'NONE', #367, .T. ) ;
#1222 = PERSON_AND_ORGANIZATION_ROLE ( 'creator' ) ;
#1223 = EDGE_LOOP ( 'NONE', ( #156, #480 ) ) ;
#1224 = SECURITY_CLASSIFICATION ( '', '', #213 ) ;
#1225 = CONTEXT_DEPENDENT_SHAPE_REPRESENTATION ( #797, #501 ) ;
#1226 = ORGANIZATION ( 'NAUO-ORG17', 'UNSPECIFIED', 'UNSPECIFIED' ) ;
#1227 = APPROVAL_STATUS ( 'not_yet_approved' ) ;
#1228 = DIRECTION ( 'NONE',  ( 0.000000000000000000, 0.000000000000000000, -1.000000000000000000 ) ) ;
#1229 = DIRECTION ( 'NONE',  ( 0.2803638829204862515, 3.433467318150973489E-17, 0.9598937926425757938 ) ) ;
#1230 = ORIENTED_EDGE ( 'NONE', *, *, #847, .F. ) ;
#1231 = SECURITY_CLASSIFICATION ( '', '', #266 ) ;
#1232 = PERSON_AND_ORGANIZATION_ROLE ( 'creator' ) ;
#1233 = CC_DESIGN_DATE_AND_TIME_ASSIGNMENT ( #539, #1080, ( #1137 ) ) ;
#1234 = ORIENTED_EDGE ( 'NONE', *, *, #1093, .T. ) ;
#1235 = ITEM_DEFINED_TRANSFORMATION ( 'NONE', 'NONE', #223,  #833 ) ;
#1236 = LOCAL_TIME ( 15, 26, 53.00000000000000000, #961 ) ;
#1237 = APPROVAL_STATUS ( 'not_yet_approved' ) ;
#1238 = ADVANCED_BREP_SHAPE_REPRESENTATION ( '', ( #604, #833 ), #1306 ) ;
#1239 = PERSON_AND_ORGANIZATION_ROLE ( 'classification_officer' ) ;
#1240 = CARTESIAN_POINT ( 'NONE',  ( -0.5972520412802502232, 0.3909062464593345276, 2.049585826057719551 ) ) ;
#1241 = PERSON ( 'NAUO-PER10', 'UNSPECIFIED', 'UNSPECIFIED', ('UNSPECIFIED'), ('UNSPECIFIED'), ('UNSPECIFIED') ) ;
#1242 = APPLICATION_PROTOCOL_DEFINITION ( 'international standard', 'config_control_design', 1994, #549 ) ;
#1243 = LOCAL_TIME ( 15, 26, 53.00000000000000000, #19 ) ;
#1244 = VERTEX_POINT ( 'NONE', #688 ) ;
#1245 = CC_DESIGN_SECURITY_CLASSIFICATION ( #878, ( #1362 ) ) ;
#1246 = COORDINATED_UNIVERSAL_TIME_OFFSET ( 8, 0, .BEHIND. ) ;
#1247 = DATE_TIME_ROLE ( 'classification_date' ) ;
#1248 = ADVANCED_FACE ( 'NONE', ( #1003 ), #1315, .F. ) ;
#1249 = PERSON_AND_ORGANIZATION ( #990, #71 ) ;
#1250 = DIRECTION ( 'NONE',  ( 1.000000000000000000, 0.000000000000000000, 0.000000000000000000 ) ) ;
#1251 = CC_DESIGN_PERSON_AND_ORGANIZATION_ASSIGNMENT ( #777, #355, ( #954 ) ) ;
#1252 = COORDINATED_UNIVERSAL_TIME_OFFSET ( 8, 0, .BEHIND. ) ;
#1253 = ORIENTED_EDGE ( 'NONE', *, *, #942, .T. ) ;
#1254 = COORDINATED_UNIVERSAL_TIME_OFFSET ( 8, 0, .BEHIND. ) ;
#1255 = APPROVAL_ROLE ( '' ) ;
#1256 = AXIS2_PLACEMENT_3D ( 'NONE', #1107, #796, #884 ) ;
#1257 = ITEM_DEFINED_TRANSFORMATION ( 'NONE', 'NONE', #230,  #833 ) ;
#1258 = DIRECTION ( 'NONE',  ( 0.2803638829204862515, 3.433467318150973489E-17, 0.9598937926425757938 ) ) ;
#1259 = APPROVAL_DATE_TIME ( #1140, #701 ) ;
#1260 = CARTESIAN_POINT ( 'NONE',  ( 0.000000000000000000, 0.000000000000000000, 0.000000000000000000 ) ) ;
#1261 = DATE_AND_TIME ( #912, #629 ) ;
#1262 = APPROVAL ( #441, 'UNSPECIFIED' ) ;
#1263 = ITEM_DEFINED_TRANSFORMATION ( 'NONE', 'NONE', #167,  #833 ) ;
#1264 = CC_DESIGN_PERSON_AND_ORGANIZATION_ASSIGNMENT ( #160, #393, ( #566 ) ) ;
#1265 = AXIS2_PLACEMENT_3D ( 'NONE', #48, #1229, #900 ) ;
#1266 = DATE_AND_TIME ( #1147, #941 ) ;
#1267 = LINE ( 'NONE', #303, #766 ) ;
#1268 = CONTEXT_DEPENDENT_SHAPE_REPRESENTATION ( #4, #510 ) ;
#1269 = PERSON ( 'NAUO-PER12', 'UNSPECIFIED', 'UNSPECIFIED', ('UNSPECIFIED'), ('UNSPECIFIED'), ('UNSPECIFIED') ) ;
#1270 = CALENDAR_DATE ( 2026, 11, 9 ) ;
#1271 = DIRECTION ( 'NONE',  ( -1.224646799147356412E-16, 1.000000000000000000, 1.789277107948263341E-32 ) ) ;
#1272 = APPROVAL_DATE_TIME ( #218, #1198 ) ;
#1273 = CC_DESIGN_APPROVAL ( #1316, ( #149 ) ) ;
#1274 = CARTESIAN_POINT ( 'NONE',  ( 0.000000000000000000, 8.367399255174292598E-18, -0.04555000000000002103 ) ) ;
#1275 = CC_DESIGN_APPROVAL ( #624, ( #127 ) ) ;
#1276 = COORDINATED_UNIVERSAL_TIME_OFFSET ( 8, 0, .BEHIND. ) ;
#1277 = APPROVAL_PERSON_ORGANIZATION ( #530, #410, #429 ) ;
#1278 = DATE_TIME_ROLE ( 'classification_date' ) ;
#1279 = CALENDAR_DATE ( 2026, 11, 9 ) ;
#1280 = CC_DESIGN_PERSON_AND_ORGANIZATION_ASSIGNMENT ( #593, #280, ( #601 ) ) ;
#1281 = CC_DESIGN_APPROVAL ( #101, ( #1137 ) ) ;
#1282 = PERSON_AND_ORGANIZATION ( #1177, #39 ) ;
#1283 = LINE ( 'NONE', #1173, #844 ) ;
#1284 = CC_DESIGN_DATE_AND_TIME_ASSIGNMENT ( #282, #1145, ( #560 ) ) ;
#1285 = DATE_AND_TIME ( #165, #1236 ) ;
#1286 = CC_DESIGN_APPROVAL ( #1083, ( #925 ) ) ;
#1287 = APPROVAL_STATUS ( 'not_yet_approved' ) ;
#1288 = APPROVAL_ROLE ( '' ) ;
#1289 = DATE_AND_TIME ( #1056, #991 ) ;
#1290 = ADVANCED_FACE ( 'NONE', ( #789, #1326 ), #1208, .F. ) ;
#1291 = PERSON_AND_ORGANIZATION ( #1177, #39 ) ;
#1292 = LOCAL_TIME ( 15, 26, 53.00000000000000000, #140 ) ;
#1293 = APPLICATION_CONTEXT ( 'configuration controlled 3d designs of mechanical parts and assemblies' ) ;
#1294 = APPROVAL_PERSON_ORGANIZATION ( #78, #691, #774 ) ;
#1295 = COORDINATED_UNIVERSAL_TIME_OFFSET ( 8, 0, .BEHIND. ) ;
#1296 = EDGE_LOOP ( 'NONE', ( #584, #472, #1142, #880 ) ) ;
#1297 = SECURITY_CLASSIFICATION ( '', '', #423 ) ;
#1298 = APPROVAL_PERSON_ORGANIZATION ( #623, #701, #822 ) ;
#1299 = APPROVAL_STATUS ( 'not_yet_approved' ) ;
#1300 = CC_DESIGN_APPROVAL ( #159, ( #524 ) ) ;
#1301 = CC_DESIGN_PERSON_AND_ORGANIZATION_ASSIGNMENT ( #996, #699, ( #809 ) ) ;
#1302 = CALENDAR_DATE ( 2026, 11, 9 ) ;
#1303 = DATE_AND_TIME ( #1099, #848 ) ;
#1304 = AXIS2_PLACEMENT_3D ( 'NONE', #794, #244, #892 ) ;
#1305 = LOCAL_TIME ( 15, 26, 53.00000000000000000, #1186 ) ;
#1306 =( GEOMETRIC_REPRESENTATION_CONTEXT ( 3 ) GLOBAL_UNCERTAINTY_ASSIGNED_CONTEXT ( ( #805 ) ) GLOBAL_UNIT_ASSIGNED_CONTEXT ( ( #1162, #1331, #721 ) ) REPRESENTATION_CONTEXT ( 'NONE', 'WORKASPACE' ) );
#1307 = COORDINATED_UNIVERSAL_TIME_OFFSET ( 8, 0, .BEHIND. ) ;
#1308 = COORDINATED_UNIVERSAL_TIME_OFFSET ( 8, 0, .BEHIND. ) ;
#1309 =( NAMED_UNIT ( * ) PLANE_ANGLE_UNIT ( ) SI_UNIT ( $, .RADIAN. ) );
#1310 = APPROVAL_PERSON_ORGANIZATION ( #556, #1010, #350 ) ;
#1311 = DIRECTION ( 'NONE',  ( 0.2803638829204862515, 3.433467318150973489E-17, 0.9598937926425757938 ) ) ;
#1312 = APPROVAL_STATUS ( 'not_yet_approved' ) ;
#1313 = LOCAL_TIME ( 15, 26, 53.00000000000000000, #734 ) ;
#1314 = APPROVAL_STATUS ( 'not_yet_approved' ) ;
#1315 = PLANE ( 'NONE',  #705 ) ;
#1316 = APPROVAL ( #1350, 'UNKNOWN' ) ;
#1317 = DIRECTION ( 'NONE',  ( 0.2803638829204862515, 3.433467318150973489E-17, 0.9598937926425757938 ) ) ;
#1318 =( REPRESENTATION_RELATIONSHIP ('NONE','NONE', #416, #344 ) REPRESENTATION_RELATIONSHIP_WITH_TRANSFORMATION ( #258 )SHAPE_REPRESENTATION_RELATIONSHIP( ) );
#1319 = VECTOR ( 'NONE', #639, 100.0000000000000000 ) ;
#1320 = COORDINATED_UNIVERSAL_TIME_OFFSET ( 8, 0, .BEHIND. ) ;
#1321 = CALENDAR_DATE ( 2026, 11, 9 ) ;
#1322 = CARTESIAN_POINT ( 'NONE',  ( 2.000000000000000000, 0.2500000000000000000, -2.000000000000000000 ) ) ;
#1323 = COORDINATED_UNIVERSAL_TIME_OFFSET ( 8, 0, .BEHIND. ) ;
#1324 = EDGE_LOOP ( 'NONE', ( #567, #279, #142, #1253 ) ) ;
#1325 = PERSON_AND_ORGANIZATION ( #445, #1024 ) ;
#1326 = FACE_BOUND ( 'NONE', #1223, .T. ) ;
#1327 = APPROVAL ( #1061, 'UNKNOWN' ) ;
#1328 = PERSON ( 'NAUO-PER26', 'UNSPECIFIED', 'UNSPECIFIED', ('UNSPECIFIED'), ('UNSPECIFIED'), ('UNSPECIFIED') ) ;
#1329 = EDGE_LOOP ( 'NONE', ( #381, #460, #693 ) ) ;
#1330 = CALENDAR_DATE ( 2026, 11, 9 ) ;
#1331 =( NAMED_UNIT ( * ) PLANE_ANGLE_UNIT ( ) SI_UNIT ( $, .RADIAN. ) );
#1332 = CONTEXT_DEPENDENT_SHAPE_REPRESENTATION ( #328, #143 ) ;
#1333 = ORGANIZATION ( 'NAUO-ORG3', 'UNSPECIFIED', 'UNSPECIFIED' ) ;
#1334 = CARTESIAN_POINT ( 'NONE',  ( -0.4789879083910076885, 0.6409062464593344721, 1.058121847350324440 ) ) ;
#1335 = APPROVAL_PERSON_ORGANIZATION ( #593, #1218, #196 ) ;
#1336 = CC_DESIGN_PERSON_AND_ORGANIZATION_ASSIGNMENT ( #192, #509, ( #524 ) ) ;
#1337 = MECHANICAL_CONTEXT ( 'NONE', #401, 'mechanical' ) ;
#1338 = EDGE_CURVE ( 'NONE', #824, #487, #239, .T. ) ;
#1339 = ORIENTED_EDGE ( 'NONE', *, *, #1149, .F. ) ;
#1340 = APPROVAL_ROLE ( '' ) ;
#1341 = CALENDAR_DATE ( 2026, 11, 9 ) ;
#1342 = APPROVAL_PERSON_ORGANIZATION ( #1344, #542, #1018 ) ;
#1343 = PRODUCT_DEFINITION_SHAPE ( 'NONE', 'NONE',  #1372 ) ;
#1344 = PERSON_AND_ORGANIZATION ( #923, #1172 ) ;
#1345 = DIRECTION ( 'NONE',  ( 0.2803638829204862515, 3.433467318150973489E-17, 0.9598937926425757938 ) ) ;
#1346 = APPROVAL_STATUS ( 'not_yet_approved' ) ;
#1347 = ORIENTED_EDGE ( 'NONE', *, *, #1149, .T. ) ;
#1348 = DATE_AND_TIME ( #612, #863 ) ;
#1349 = SECURITY_CLASSIFICATION ( '', '', #950 ) ;
#1350 = APPROVAL_STATUS ( 'not_yet_approved' ) ;
#1351 = ITEM_DEFINED_TRANSFORMATION ( 'NONE', 'NONE', #872,  #833 ) ;
#1352 = DATE_AND_TIME ( #179, #240 ) ;
#1353 = APPROVAL_PERSON_ORGANIZATION ( #775, #624, #336 ) ;
#1354 = ORIENTED_EDGE ( 'NONE', *, *, #650, .F. ) ;
#1355 = PERSON_AND_ORGANIZATION_ROLE ( 'classification_officer' ) ;
#1356 = PRODUCT_DEFINITION_SHAPE ( 'NONE', 'NONE',  #1375 ) ;
#1357 = APPROVAL_STATUS ( 'not_yet_approved' ) ;
#1358 = APPROVAL_ROLE ( '' ) ;
#1359 = LOCAL_TIME ( 15, 26, 53.00000000000000000, #1246 ) ;
#1360 = NEXT_ASSEMBLY_USAGE_OCCURRENCE ( 'NAUO1', ' ', ' ', #104, #1137, $ ) ;
#1361 = NEXT_ASSEMBLY_USAGE_OCCURRENCE ( 'NAUO2', ' ', ' ', #104, #842, $ ) ;
#1362 = NEXT_ASSEMBLY_USAGE_OCCURRENCE ( 'NAUO3', ' ', ' ', #104, #842, $ ) ;
#1363 = NEXT_ASSEMBLY_USAGE_OCCURRENCE ( 'NAUO4', ' ', ' ', #104, #842, $ ) ;
#1364 = NEXT_ASSEMBLY_USAGE_OCCURRENCE ( 'NAUO5', ' ', ' ', #104, #842, $ ) ;
#1365 = NEXT_ASSEMBLY_USAGE_OCCURRENCE ( 'NAUO6', ' ', ' ', #104, #842, $ ) ;
#1366 = NEXT_ASSEMBLY_USAGE_OCCURRENCE ( 'NAUO7', ' ', ' ', #104, #842, $ ) ;
#1367 = NEXT_ASSEMBLY_USAGE_OCCURRENCE ( 'NAUO8', ' ', ' ', #104, #842, $ ) ;
#1368 = NEXT_ASSEMBLY_USAGE_OCCURRENCE ( 'NAUO9', ' ', ' ', #104, #842, $ ) ;
#1369 = NEXT_ASSEMBLY_USAGE_OCCURRENCE ( 'NAUO10', ' ', ' ', #104, #842, $ ) ;
#1370 = NEXT_ASSEMBLY_USAGE_OCCURRENCE ( 'NAUO11', ' ', ' ', #104, #842, $ ) ;
#1371 = NEXT_ASSEMBLY_USAGE_OCCURRENCE ( 'NAUO12', ' ', ' ', #104, #842, $ ) ;
#1372 = NEXT_ASSEMBLY_USAGE_OCCURRENCE ( 'NAUO13', ' ', ' ', #104, #842, $ ) ;
#1373 = NEXT_ASSEMBLY_USAGE_OCCURRENCE ( 'NAUO14', ' ', ' ', #104, #842, $ ) ;
#1374 = NEXT_ASSEMBLY_USAGE_OCCURRENCE ( 'NAUO15', ' ', ' ', #104, #842, $ ) ;
#1375 = NEXT_ASSEMBLY_USAGE_OCCURRENCE ( 'NAUO16', ' ', ' ', #104, #842, $ ) ;
#1376 = NEXT_ASSEMBLY_USAGE_OCCURRENCE ( 'NAUO17', ' ', ' ', #104, #842, $ ) ;
#1377 = NEXT_ASSEMBLY_USAGE_OCCURRENCE ( 'NAUO18', ' ', ' ', #104, #842, $ ) ;
#1378 = NEXT_ASSEMBLY_USAGE_OCCURRENCE ( 'NAUO19', ' ', ' ', #104, #842, $ ) ;
#1379 = NEXT_ASSEMBLY_USAGE_OCCURRENCE ( 'NAUO20', ' ', ' ', #104, #842, $ ) ;
#1380 = NEXT_ASSEMBLY_USAGE_OCCURRENCE ( 'NAUO21', ' ', ' ', #104, #842, $ ) ;
#1381 = NEXT_ASSEMBLY_USAGE_OCCURRENCE ( 'NAUO22', ' ', ' ', #104, #842, $ ) ;
#1382 = NEXT_ASSEMBLY_USAGE_OCCURRENCE ( 'NAUO23', ' ', ' ', #104, #842, $ ) ;
#1383 = NEXT_ASSEMBLY_USAGE_OCCURRENCE ( 'NAUO24', ' ', ' ', #104, #842, $ ) ;
#1384 = NEXT_ASSEMBLY_USAGE_OCCURRENCE ( 'NAUO25', ' ', ' ', #104, #842, $ ) ;
#1385 = NEXT_ASSEMBLY_USAGE_OCCURRENCE ( 'NAUO26', ' ', ' ', #104, #842, $ ) ;
ENDSEC;
END-ISO-10303-21;
